<?xml version="1.0" encoding="UTF-8" standalone="no"?>
<!-- Created with Inkscape (http://www.inkscape.org/) -->

<svg
   xmlns:dc="http://purl.org/dc/elements/1.1/"
   xmlns:cc="http://creativecommons.org/ns#"
   xmlns:rdf="http://www.w3.org/1999/02/22-rdf-syntax-ns#"
   xmlns:svg="http://www.w3.org/2000/svg"
   xmlns="http://www.w3.org/2000/svg"
   xmlns:sodipodi="http://sodipodi.sourceforge.net/DTD/sodipodi-0.dtd"
   xmlns:inkscape="http://www.inkscape.org/namespaces/inkscape"
   width="500mm"
   height="250mm"
   viewBox="0 0 500 250"
   version="1.1"
   id="svg8"
   sodipodi:docname="cryptocompra.svg"
   inkscape:version="0.92.1 r15371">
  <defs
     id="defs2" />
  <sodipodi:namedview
     id="base"
     pagecolor="#ffffff"
     bordercolor="#666666"
     borderopacity="1.0"
     inkscape:pageopacity="0.0"
     inkscape:pageshadow="2"
     inkscape:zoom="0.35355339"
     inkscape:cx="923.62886"
     inkscape:cy="298.66357"
     inkscape:document-units="mm"
     inkscape:current-layer="layer1"
     showgrid="false"
     inkscape:window-width="1920"
     inkscape:window-height="1030"
     inkscape:window-x="0"
     inkscape:window-y="0"
     inkscape:window-maximized="1"
     showguides="true"
     inkscape:guide-bbox="true">
    <sodipodi:guide
       position="48.683333,167.74583"
       orientation="0,1"
       id="guide4573"
       inkscape:locked="false" />
    <sodipodi:guide
       position="125.94167,67.733332"
       orientation="0,1"
       id="guide4575"
       inkscape:locked="false" />
    <sodipodi:guide
       position="29.633333,167.74583"
       orientation="1,0"
       id="guide4577"
       inkscape:locked="false" />
    <sodipodi:guide
       position="470.95833,167.74583"
       orientation="1,0"
       id="guide4579"
       inkscape:locked="false" />
  </sodipodi:namedview>
  <metadata
     id="metadata5">
    <rdf:RDF>
      <cc:Work
         rdf:about="">
        <dc:format>image/svg+xml</dc:format>
        <dc:type
           rdf:resource="http://purl.org/dc/dcmitype/StillImage" />
        <dc:title></dc:title>
      </cc:Work>
    </rdf:RDF>
  </metadata>
  <g
     inkscape:groupmode="layer"
     id="layer2"
     inkscape:label="Card"
     style="display:inline">
    <rect
       style="fill:#cccccc;fill-opacity:1;stroke-width:0.21824281"
       id="rect4499"
       width="500.00049"
       height="170.0974"
       x="-0.00024414062"
       y="39.951302"
       ry="4.2642946" />
    <rect
       style="fill:#ffffff;fill-opacity:1;stroke-width:0.21558109"
       id="rect4499-6"
       width="493.10748"
       height="162.0092"
       x="3.4462585"
       y="43.995399"
       ry="4.160913" />
  </g>
  <g
     inkscape:label="Logo"
     inkscape:groupmode="layer"
     id="layer1"
     transform="translate(0,-47)"
     style="display:inline">
    <path
       style="fill:#cccccc;stroke-width:1.05393231"
       d="m 381.98843,195.52698 c 0,-0.89531 1.46223,-9.29282 3.2494,-18.66114 1.78717,-9.36832 3.2494,-17.20108 3.2494,-17.40614 0,-0.20508 1.94964,-0.37285 4.33253,-0.37285 2.38289,0 4.33253,0.4261 4.33253,0.9469 0,0.52082 1.48925,0.24351 3.30944,-0.61622 6.73863,-3.18285 14.56162,0.83882 15.81098,8.12815 1.46039,8.52062 -5.61747,17.17913 -14.043,17.17913 -2.52747,0 -5.61932,-0.67904 -6.87081,-1.50897 -2.21995,-1.47221 -2.31157,-1.32857 -3.76117,5.89673 l -1.4858,7.40571 -4.06175,0.31828 c -3.12888,0.24519 -4.06175,-0.0555 -4.06175,-1.30958 z m 22.41902,-18.49483 c 2.84606,-1.88741 4.13697,-6.83285 2.52705,-9.68101 -2.66666,-4.71765 -11.94847,-0.69918 -11.94847,5.17296 0,5.27865 4.79775,7.57432 9.42142,4.50805 z m -260.5095,16.19375 c 0.2412,-1.95617 1.11599,-2.95077 2.95292,-3.35736 1.4356,-0.31774 3.50802,-1.72044 4.60536,-3.1171 1.94993,-2.48181 1.9338,-2.78358 -0.71161,-13.30734 -1.48874,-5.92237 -2.90626,-11.57554 -3.15005,-12.5626 -0.3693,-1.49527 0.33099,-1.79465 4.19778,-1.79465 h 4.64103 l 1.2386,7.88485 c 0.68125,4.33667 1.37937,8.01812 1.55143,8.18101 0.17203,0.1629 2.20854,-3.3853 4.52559,-7.88485 l 4.21279,-8.18101 h 4.74556 4.74558 l -2.16605,3.33293 c -1.19131,1.83311 -5.63528,9.10148 -9.8755,16.15191 -9.0514,15.05028 -11.44564,17.43382 -17.51208,17.43382 -4.08584,0 -4.32369,-0.16523 -4.00135,-2.77961 z m 28.36178,0.98495 c 0.29984,-0.98706 1.90399,-9.29376 3.5648,-18.45932 l 3.01966,-16.66468 h 4.09012 c 2.24957,0 4.09013,0.40428 4.09013,0.89842 0,0.49413 2.07929,0.19049 4.62063,-0.67475 4.22659,-1.43903 4.95274,-1.42399 8.515,0.17651 12.32571,5.53782 5.84376,25.23778 -8.30408,25.23778 -2.29403,0 -4.98712,-0.7435 -6.07759,-1.67787 -2.28353,-1.95664 -2.32525,-1.88619 -4.18245,7.06184 l -1.2239,5.89673 h -4.32873 c -3.60818,0 -4.23798,-0.29873 -3.78359,-1.79466 z m 23.38758,-17.88356 c 2.445,-2.4848 2.94673,-7.92709 0.9087,-9.85672 -2.29591,-2.17379 -7.03772,-1.43567 -9.45295,1.47148 -2.70958,3.26145 -2.86307,6.23209 -0.45231,8.75424 2.41379,2.52534 6.30565,2.36572 8.99656,-0.369 z m -142.389817,8.68107 c -5.880684,-0.98654 -7.284495,-1.57468 -10.866798,-4.55267 -2.126388,-1.76768 -4.572378,-4.507 -5.435531,-6.08737 -1.863996,-3.41283 -2.068823,-12.44484 -0.353893,-15.60527 1.796877,-3.31146 6.502947,-7.8631 9.83285,-9.51019 3.948549,-1.95309 32.290448,-2.09794 32.250516,-0.16482 -0.0233,1.12875 -0.891066,5.23231 -2.710747,12.81897 -0.491046,2.04727 -1.220408,2.30742 -6.469275,2.30742 h -5.915836 l -2.526879,-4.7076 -2.526878,-4.70759 -3.721898,4.64411 c -2.353658,2.93685 -4.717348,4.7617 -6.429731,4.96397 -3.38017,0.39929 -3.558591,3.11013 -0.25425,3.86295 1.34947,0.30746 3.559206,2.29591 4.910522,4.4188 l 2.456942,3.85979 4.245145,-4.11617 c 3.789041,-3.67393 4.803395,-4.11619 9.440992,-4.11619 2.874516,0 5.195843,0.47643 5.195843,1.06638 0,2.32849 -4.424622,9.07986 -7.617913,11.62392 -1.859205,1.4812 -4.683186,2.96224 -6.275511,3.2912 -1.592326,0.32897 -3.382547,0.70515 -3.978271,0.83595 -0.595723,0.13088 -2.057953,0.0744 -3.249399,-0.12561 z m 47.414197,-0.23169 c -7.172585,-1.65879 -12.212376,-7.35166 -12.212376,-13.79496 0,-2.47507 0.347706,-2.66521 4.874111,-2.66521 4.43808,0 4.8741,0.2227 4.8741,2.48937 0,5.44336 9.571545,8.6927 15.000535,5.09237 2.33399,-1.54784 2.64391,-1.50656 5.10157,0.67948 2.06521,1.83695 2.35078,2.63074 1.35513,3.76661 -3.24025,3.69658 -12.66457,5.8959 -18.99307,4.43234 z m 177.46896,-0.0698 c -8.67742,-1.90203 -13.58279,-8.53364 -12.72847,-17.20776 1.00827,-10.23746 8.7682,-18.40987 19.19258,-20.21274 4.54831,-0.78663 11.70506,0.81379 15.02655,3.3603 l 2.33233,1.78815 -3.2028,2.90527 c -3.12736,2.83681 -3.26969,2.86376 -6.04176,1.14405 -6.0169,-3.73272 -14.77823,0.34825 -16.9207,7.88156 -1.40891,4.95398 -0.42698,8.57962 3.01862,11.14576 3.29402,2.45324 6.83736,2.58608 11.25738,0.42198 3.03426,-1.48561 3.4572,-1.47308 5.36188,0.15894 2.93461,2.51452 2.57935,4.07193 -1.45241,6.3672 -4.22612,2.40594 -10.83963,3.34404 -15.8432,2.24729 z m -64.1507,-2.13983 c -1.76002,-1.6664 -2.12034,-2.89261 -1.58208,-5.38397 0.38335,-1.77437 0.98778,-5.18742 1.34318,-7.58456 0.59509,-4.01397 0.45416,-4.35847 -1.7832,-4.35847 -1.77028,0 -2.25101,-0.44008 -1.77193,-1.62214 0.3616,-0.89219 0.65746,-2.24455 0.65746,-3.00523 0,-0.7607 1.09354,-1.53055 2.43008,-1.71079 1.74176,-0.23488 2.58684,-1.19914 2.98347,-3.40426 0.48974,-2.72264 1.03555,-3.11404 4.74461,-3.40242 l 4.19118,-0.32587 -0.72495,3.6588 c -0.67688,3.4162 -0.54215,3.65881 2.03196,3.65881 1.65783,0 2.75691,0.57981 2.75691,1.4544 0,2.99161 -1.39151,4.6987 -3.83006,4.6987 -2.17588,0 -2.68154,0.75886 -3.74863,5.62561 -1.37013,6.24883 -0.92708,7.70614 2.34283,7.70614 1.57774,0 2.0284,0.46839 1.56077,1.62215 -0.3616,0.89219 -0.65744,2.27664 -0.65744,3.07656 0,2.40948 -8.21396,1.88153 -10.94416,-0.70346 z m 20.04248,-1.3289 c -2.91789,-2.76267 -3.68265,-4.31001 -3.68265,-7.45101 0,-9.11054 8.70261,-16.44516 18.15068,-15.29747 8.74405,1.06215 13.13825,6.19254 11.66639,13.62093 -1.615,8.15081 -7.58578,12.61431 -16.874,12.61431 -4.89916,0 -6.0258,-0.42421 -9.26042,-3.48676 z m 15.32141,-5.18353 c 3.52589,-3.33834 3.57116,-8.15011 0.0969,-10.30541 -6.41693,-3.98088 -14.85541,5.56166 -9.44669,10.68268 2.98787,2.82895 6.09584,2.70353 9.34973,-0.37727 z m 56.57171,7.07171 c -3.88689,-1.99713 -5.17212,-4.47604 -5.17212,-9.97581 0,-11.01181 12.03543,-18.06819 23.25021,-13.63161 9.67047,3.82565 8.65683,18.65195 -1.61914,23.6832 -3.95235,1.93512 -12.62297,1.8952 -16.45895,-0.0758 z m 11.49227,-5.71308 c 3.67089,-1.58359 5.6856,-6.3399 4.08999,-9.65561 -0.93713,-1.94738 -2.03739,-2.51759 -4.85784,-2.51759 -6.45089,0 -10.46378,7.19483 -6.2422,11.19184 2.60226,2.46384 3.33561,2.56651 7.01005,0.98136 z m 16.9162,6.02976 c 0.003,-1.38183 2.93172,-18.2537 3.82637,-22.04864 0.43669,-1.85233 1.2876,-2.30742 4.3143,-2.30742 2.66211,0 3.77034,0.46116 3.77034,1.56898 0,1.26138 0.61944,1.13536 3.15969,-0.64283 2.46841,-1.72789 4.00229,-2.06214 7.01093,-1.52774 2.11816,0.37624 4.29448,1.43398 4.83622,2.35055 0.885,1.49727 1.28774,1.44102 3.9665,-0.554 3.75561,-2.79703 8.07494,-2.83196 11.74989,-0.0949 2.37363,1.76779 2.84596,2.9327 2.80665,6.92226 -0.026,2.63823 -0.65255,7.56568 -1.39233,10.9499 -1.34287,6.14313 -1.35181,6.15364 -5.5167,6.47976 l -4.17166,0.32666 0.87078,-6.47977 c 1.46574,-10.90719 1.31924,-12.60035 -1.11573,-12.89514 -3.87965,-0.46968 -5.2358,1.49987 -7.00897,10.17922 l -1.7452,8.54238 -4.65299,0.3197 c -4.05969,0.27894 -4.57979,0.0828 -4.07894,-1.53828 1.55814,-5.04316 3.05561,-14.77555 2.48866,-16.1744 -0.94821,-2.33958 -4.76648,-1.91403 -6.53468,0.7283 -0.84924,1.26907 -2.12304,5.65317 -2.83066,9.74242 l -1.28658,7.43501 h -4.23468 c -2.66749,0 -4.23339,-0.47441 -4.23121,-1.28189 z m 84.46846,-0.45085 c -0.006,-1.0211 0.84297,-6.81751 1.88853,-12.88089 l 1.901,-11.02432 h 4.06871 c 2.23779,0 4.0687,0.48764 4.0687,1.08367 0,0.6074 1.05798,0.38205 2.40728,-0.51277 1.32399,-0.87803 3.41946,-1.59642 4.65661,-1.59642 1.93287,0 2.18706,0.50497 1.80675,3.58931 -0.35599,2.88712 -0.90863,3.58931 -2.82489,3.58931 -4.45391,0 -6.2653,2.40982 -8.15997,10.8558 l -1.82073,8.11631 -3.98976,0.31828 c -3.24866,0.25916 -3.99207,-0.0266 -4.00223,-1.53828 z m 20.47918,-0.42511 c -2.60023,-2.46192 -2.22491,-7.13601 0.82964,-10.3317 1.954,-2.0443 7.91965,-3.90412 12.55157,-3.91302 1.95007,-0.004 2.97862,-0.54801 2.97862,-1.57619 0,-2.26362 -2.69932,-2.91381 -6.6641,-1.6052 -2.84198,0.93803 -3.78818,0.83923 -5.42923,-0.56689 -2.82256,-2.41853 -2.53702,-3.00515 2.36705,-4.863 7.96654,-3.01803 15.52834,-1.54531 18.01199,3.50798 0.96455,1.96251 0.8676,4.67258 -0.43001,12.01983 l -1.67533,9.48605 h -3.54149 c -1.94782,0 -3.72726,-0.52765 -3.95431,-1.17258 -0.30972,-0.87974 -0.99069,-0.87974 -2.72689,0 -3.77023,1.91045 -9.76562,1.43087 -12.31751,-0.98528 z m 14.19357,-5.02079 c 2.985,-2.82622 2.71251,-4.10208 -0.87612,-4.10208 -3.99555,0 -7.25798,2.28605 -6.37423,4.46654 0.93467,2.30617 4.62564,2.12063 7.25035,-0.36446 z m -329.285,4.87121 c -0.007,-0.70504 0.84298,-6.24284 1.88853,-12.30622 l 1.901,-11.02432 h 4.06871 c 2.97801,0 4.06871,0.43231 4.06871,1.61271 0,1.33686 0.48814,1.24916 2.85391,-0.51277 4.21689,-3.14058 6.01547,-2.77233 5.609,1.14839 -0.28436,2.74275 -0.92288,3.41602 -3.93609,4.15016 -4.14974,1.01106 -6.00908,4.31688 -7.21612,12.82998 l -0.76338,5.38397 h -4.23089 c -2.65597,0 -4.23554,-0.47717 -4.24338,-1.2819 z M 90.071753,160.36882 C 94.933635,148.97846 112.39515,143.26335 121.5356,150.0708 l 2.81233,2.09449 -2.93692,2.90243 c -2.68784,2.65627 -3.12782,2.77584 -5.18771,1.40978 -2.95523,-1.95982 -9.33129,-1.9042 -12.3653,0.1078 -1.3274,0.8803 -3.1543,2.95697 -4.059775,4.61483 -1.45067,2.65606 -2.22405,3.0143 -6.50716,3.0143 h -4.860813 z"
       id="path4695"
       inkscape:connector-curvature="0" />
  </g>
</svg>
