<?xml version="1.0" encoding="UTF-8" standalone="no"?>
<!-- Created with Inkscape (http://www.inkscape.org/) -->

<svg
   xmlns:dc="http://purl.org/dc/elements/1.1/"
   xmlns:cc="http://creativecommons.org/ns#"
   xmlns:rdf="http://www.w3.org/1999/02/22-rdf-syntax-ns#"
   xmlns:svg="http://www.w3.org/2000/svg"
   xmlns="http://www.w3.org/2000/svg"
   xmlns:sodipodi="http://sodipodi.sourceforge.net/DTD/sodipodi-0.dtd"
   xmlns:inkscape="http://www.inkscape.org/namespaces/inkscape"
   width="500mm"
   height="250mm"
   viewBox="0 0 500 250"
   version="1.1"
   id="svg8"
   sodipodi:docname="mach.svg"
   inkscape:version="0.92.1 r15371">
  <defs
     id="defs2" />
  <sodipodi:namedview
     id="base"
     pagecolor="#ffffff"
     bordercolor="#666666"
     borderopacity="1.0"
     inkscape:pageopacity="0.0"
     inkscape:pageshadow="2"
     inkscape:zoom="0.35355339"
     inkscape:cx="923.62886"
     inkscape:cy="298.66357"
     inkscape:document-units="mm"
     inkscape:current-layer="layer1"
     showgrid="false"
     inkscape:window-width="1920"
     inkscape:window-height="1030"
     inkscape:window-x="0"
     inkscape:window-y="0"
     inkscape:window-maximized="1"
     showguides="true"
     inkscape:guide-bbox="true">
    <sodipodi:guide
       position="48.683333,167.74583"
       orientation="0,1"
       id="guide4573"
       inkscape:locked="false" />
    <sodipodi:guide
       position="125.94167,67.733332"
       orientation="0,1"
       id="guide4575"
       inkscape:locked="false" />
    <sodipodi:guide
       position="29.633333,167.74583"
       orientation="1,0"
       id="guide4577"
       inkscape:locked="false" />
    <sodipodi:guide
       position="470.95833,167.74583"
       orientation="1,0"
       id="guide4579"
       inkscape:locked="false" />
  </sodipodi:namedview>
  <metadata
     id="metadata5">
    <rdf:RDF>
      <cc:Work
         rdf:about="">
        <dc:format>image/svg+xml</dc:format>
        <dc:type
           rdf:resource="http://purl.org/dc/dcmitype/StillImage" />
        <dc:title></dc:title>
      </cc:Work>
    </rdf:RDF>
  </metadata>
  <g
     inkscape:groupmode="layer"
     id="layer2"
     inkscape:label="Card"
     style="display:inline">
    <rect
       style="fill:#cccccc;fill-opacity:1;stroke-width:0.21824281"
       id="rect4499"
       width="500.00049"
       height="170.0974"
       x="-0.00024414062"
       y="39.951302"
       ry="4.2642946" />
    <rect
       style="fill:#ffffff;fill-opacity:1;stroke-width:0.21558109"
       id="rect4499-6"
       width="493.10748"
       height="162.0092"
       x="3.4462585"
       y="43.995399"
       ry="4.160913" />
  </g>
  <g
     inkscape:label="Logo"
     inkscape:groupmode="layer"
     id="layer1"
     transform="translate(0,-47)"
     style="display:inline">
    <path
       style="fill:#cccccc;stroke-width:1.07078469"
       d="m 40.712608,208.57581 c -2.264057,-1.87778 -2.351556,-3.25056 -2.351556,-36.9054 0,-32.62548 0.143535,-35.06267 2.150205,-36.56903 1.182599,-0.88765 3.841492,-1.61388 5.90873,-1.61388 4.294276,0 4.153939,-0.16181 25.066109,28.89186 6.678136,9.27815 12.627041,16.75144 13.219767,16.60736 0.592724,-0.1441 8.000056,-9.72207 16.460807,-21.28442 8.46071,-11.5624 16.1093,-21.74078 16.99682,-22.61867 0.89873,-0.88895 3.3436,-1.59613 5.51825,-1.59613 7.50963,0 7.56517,0.28305 7.56517,38.55244 0,33.08776 -0.0791,34.28826 -2.39732,36.35202 -2.75431,2.45198 -6.71933,2.74953 -10.01748,0.75174 -2.11447,-1.28081 -2.32556,-3.04884 -2.87019,-24.04336 l -0.58789,-22.6609 -11.5998,15.9982 c -13.059781,18.01176 -15.293394,20.38645 -19.175202,20.38645 -3.950585,0 -5.564464,-1.70595 -18.607362,-19.66848 l -11.757691,-16.19258 -0.587879,22.39909 c -0.544239,20.73514 -0.757455,22.5018 -2.87024,23.78158 -3.215798,1.94793 -7.308413,1.71699 -10.063248,-0.56789 z m 121.104362,0 c -1.29335,-1.07268 -2.35156,-2.65131 -2.35156,-3.50808 0,-0.85674 6.15691,-12.37597 13.68205,-25.59829 7.52516,-13.22232 16.03718,-28.20941 18.9156,-33.3047 2.87846,-5.09529 6.06276,-10.03209 7.07618,-10.97069 2.3911,-2.21455 8.05772,-2.18901 10.36583,0.0469 2.50957,2.43093 39.31895,67.33925 39.31895,69.33365 0,5.08627 -8.50261,7.98819 -12.3854,4.22712 -0.97924,-0.94855 -8.42136,-13.34202 -16.53808,-27.54105 -8.11671,-14.19902 -14.97861,-25.99966 -15.2487,-26.22365 -0.44967,-0.37293 -8.09684,12.53952 -24.77717,41.83688 -3.51171,6.16798 -7.2606,11.76304 -8.33082,12.43346 -2.87103,1.79852 -7.05604,1.48382 -9.72688,-0.73139 z m 140.83585,0.63575 c -7.31589,-1.70604 -17.2252,-7.24976 -22.49735,-12.58605 -19.04983,-19.28153 -11.46626,-48.45509 15.45419,-59.45132 7.34747,-3.00122 8.59744,-3.19911 20.20542,-3.19911 10.87158,0 13.16487,0.30775 18.8938,2.53653 9.08974,3.53606 15.23137,8.19462 15.23137,11.55336 0,5.46186 -7.52275,7.69006 -13.2806,3.93367 -13.46102,-8.78198 -34.44615,-7.4626 -44.14541,2.77551 -6.0839,6.42188 -7.62138,9.90015 -7.61743,17.23269 0.009,14.96561 13.40435,26.12589 31.22809,26.01581 7.95033,-0.049 13.2782,-1.53277 19.6406,-5.46943 5.04742,-3.123 9.88088,-3.2555 12.34445,-0.33835 2.91411,3.45069 2.20705,6.13284 -2.52516,9.57889 -7.51911,5.47551 -16.05863,8.10252 -27.39034,8.42613 -5.82301,0.16622 -12.30935,-0.25468 -15.54163,-1.00833 z m 83.73635,-0.63575 c -2.26268,-1.87661 -2.35156,-3.25056 -2.35156,-36.352 0,-38.99162 0.0222,-39.10237 8.02111,-38.54587 6.37326,0.44346 7.22612,2.68783 7.24657,19.06923 l 0.0178,13.89621 h 23.51543 23.51538 v -13.71654 c 0,-16.60253 1.21384,-19.39025 8.45768,-19.42442 6.65582,-0.0331 6.82737,0.94145 6.82737,38.72139 0,33.10144 -0.0888,34.47539 -2.35156,36.352 -1.29334,1.07273 -3.54202,1.94365 -4.99703,1.93544 -6.61895,-0.0372 -7.93646,-3.18094 -7.93646,-18.93685 v -13.22895 h -23.40754 -23.40762 l -0.40173,14.7074 c -0.36083,13.21328 -0.63364,14.84785 -2.68408,16.09033 -3.21549,1.94845 -7.30818,1.71769 -10.06325,-0.56737 z"
       id="path4663"
       inkscape:connector-curvature="0" />
  </g>
</svg>
