<?xml version="1.0" encoding="UTF-8" standalone="no"?>
<!-- Created with Inkscape (http://www.inkscape.org/) -->

<svg
   xmlns:dc="http://purl.org/dc/elements/1.1/"
   xmlns:cc="http://creativecommons.org/ns#"
   xmlns:rdf="http://www.w3.org/1999/02/22-rdf-syntax-ns#"
   xmlns:svg="http://www.w3.org/2000/svg"
   xmlns="http://www.w3.org/2000/svg"
   xmlns:sodipodi="http://sodipodi.sourceforge.net/DTD/sodipodi-0.dtd"
   xmlns:inkscape="http://www.inkscape.org/namespaces/inkscape"
   width="500mm"
   height="250mm"
   viewBox="0 0 500 250"
   version="1.1"
   id="svg8"
   sodipodi:docname="onepay.svg"
   inkscape:version="0.92.1 r15371">
  <defs
     id="defs2" />
  <sodipodi:namedview
     id="base"
     pagecolor="#ffffff"
     bordercolor="#666666"
     borderopacity="1.0"
     inkscape:pageopacity="0.0"
     inkscape:pageshadow="2"
     inkscape:zoom="0.5"
     inkscape:cx="930.15455"
     inkscape:cy="271.23015"
     inkscape:document-units="mm"
     inkscape:current-layer="layer1"
     showgrid="false"
     inkscape:window-width="1920"
     inkscape:window-height="1030"
     inkscape:window-x="0"
     inkscape:window-y="0"
     inkscape:window-maximized="1"
     showguides="true"
     inkscape:guide-bbox="true">
    <sodipodi:guide
       position="48.683333,167.74583"
       orientation="0,1"
       id="guide4573"
       inkscape:locked="false" />
    <sodipodi:guide
       position="125.94167,67.733332"
       orientation="0,1"
       id="guide4575"
       inkscape:locked="false" />
    <sodipodi:guide
       position="29.633333,167.74583"
       orientation="1,0"
       id="guide4577"
       inkscape:locked="false" />
    <sodipodi:guide
       position="470.95833,167.74583"
       orientation="1,0"
       id="guide4579"
       inkscape:locked="false" />
  </sodipodi:namedview>
  <metadata
     id="metadata5">
    <rdf:RDF>
      <cc:Work
         rdf:about="">
        <dc:format>image/svg+xml</dc:format>
        <dc:type
           rdf:resource="http://purl.org/dc/dcmitype/StillImage" />
        <dc:title></dc:title>
      </cc:Work>
    </rdf:RDF>
  </metadata>
  <g
     inkscape:groupmode="layer"
     id="layer2"
     inkscape:label="Card"
     style="display:inline">
    <rect
       style="fill:#cccccc;fill-opacity:1;stroke-width:0.21824281"
       id="rect4499"
       width="500.00049"
       height="170.0974"
       x="-0.00024414062"
       y="39.951302"
       ry="4.2642946" />
    <rect
       style="fill:#ffffff;fill-opacity:1;stroke-width:0.21558109"
       id="rect4499-6"
       width="493.10748"
       height="162.0092"
       x="3.4462585"
       y="43.995399"
       ry="4.160913" />
  </g>
  <g
     inkscape:label="Logo"
     inkscape:groupmode="layer"
     id="layer1"
     transform="translate(0,-47)"
     style="display:inline">
    <path
       style="fill:#cccccc;stroke-width:0.96355915"
       d="m 404.98031,204.88326 c -5.47174,-0.8818 -6.59923,-1.48542 -6.59923,-3.53305 0,-2.35301 3.94952,-3.68685 9.12206,-3.08079 5.93301,0.69519 9.58428,-0.54515 12.82044,-4.35532 l 2.89962,-3.41398 -3.45245,-4.84631 c -1.8989,-2.66547 -7.24147,-10.09096 -11.87242,-16.50109 -5.13361,-7.10585 -8.14245,-12.201 -7.70887,-13.05419 0.88806,-1.74767 6.96024,-3.3842 10.18481,-2.74495 3.46905,0.68771 4.99181,2.48612 12.9292,15.26972 3.9008,6.28247 7.48779,11.6968 7.97104,12.03182 0.48326,0.33505 4.33065,-4.80515 8.54985,-11.42265 4.21913,-6.61756 8.72802,-12.97425 10.0197,-14.12608 2.67825,-2.38817 6.37902,-2.68777 10.56725,-0.85552 3.8848,1.69958 3.4652,2.63902 -9.72554,21.77546 -16.59979,24.08211 -17.92547,25.57965 -24.53411,27.71418 -4.07993,1.3178 -16.06931,1.96493 -21.17135,1.14275 z M 70.741233,191.04672 c -13.116274,-1.61689 -23.522275,-6.33268 -29.315751,-13.28526 -4.202914,-5.04382 -5.309308,-16.43531 -2.169749,-22.33919 3.154768,-5.93247 9.236615,-10.32425 18.050211,-13.03429 23.626463,-7.26483 54.720196,-3.23858 65.428356,8.47207 6.95205,7.60299 7.70631,19.49195 1.70179,26.82654 -8.77434,10.71795 -30.757621,16.18774 -53.694857,13.36013 z m 26.082965,-10.27871 c 9.500892,-3.46457 14.215402,-11.60407 11.540232,-19.92405 -2.87442,-8.93962 -11.360742,-13.38249 -25.759853,-13.48604 -16.482364,-0.11861 -25.595023,6.24004 -25.564839,17.83854 0.0092,3.88235 0.725906,6.68891 2.235135,8.76392 2.619864,3.60202 9.814695,7.77914 14.512744,8.42572 1.831749,0.25212 3.879107,0.58954 4.549672,0.74988 2.980997,0.71272 13.860198,-0.6808 18.486909,-2.36797 z m -26.818179,-6.17955 c -1.92474,-1.20215 -0.487487,-3.30627 3.980622,-5.82749 l 4.793435,-2.70486 -3.879014,-0.48427 c -8.715536,-1.08801 -11.803946,-2.00493 -11.803946,-3.5044 0,-2.28671 3.12145,-2.53316 9.699125,-0.76581 3.296233,0.88566 6.354368,1.61029 6.795913,1.61029 0.441452,0 0.439148,-1.65176 -0.0045,-3.67063 -0.881891,-4.00495 1.124965,-6.08416 4.980569,-5.16005 1.610883,0.38611 1.887275,1.27984 1.439234,4.6543 -0.305053,2.29702 -0.118428,4.17638 0.415186,4.17638 0.533289,0 3.818878,-0.70146 7.301323,-1.5588 6.976194,-1.71748 9.608314,-1.52876 9.608314,0.6888 0,1.15203 -1.65176,1.74165 -7.782464,2.77816 l -7.782498,1.31578 4.734454,2.95712 c 4.938356,3.08448 5.945546,4.9992 3.000904,5.70495 -2.631523,0.63069 -6.286631,-0.90599 -9.229842,-3.88051 -1.455775,-1.47117 -3.013575,-2.66406 -3.461847,-2.65083 -0.448363,0.0145 -2.302644,1.55533 -4.12089,3.42678 -3.068872,3.15878 -6.453857,4.28737 -8.683004,2.89509 z m 65.112641,15.7928 c -3.31111,-2.06805 -4.01738,-6.28267 -3.54692,-21.1648 0.36359,-11.50042 0.67919,-13.18652 2.73361,-14.60293 4.39673,-3.03124 14.13681,-1.33866 14.13681,2.45664 0,1.62414 1.66853,1.62841 3.81316,0.009 5.33406,-4.02601 21.70173,-5.33622 31.11312,-2.49057 9.37924,2.83591 10.22892,4.5446 10.25362,20.62067 0.0184,13.38181 -0.0895,14.03058 -2.59723,15.30676 -3.66115,1.86313 -8.03129,1.66008 -11.5481,-0.53653 -2.90401,-1.81374 -2.99267,-2.19842 -2.99267,-12.98351 0,-14.45989 -1.37628,-16.36934 -11.79893,-16.36934 -2.35633,0 -5.86877,0.58465 -7.80548,1.29918 -6.00481,2.21553 -7.21828,4.98361 -7.21828,16.46585 0,10.2207 -0.023,10.31261 -3.21246,11.87871 -4.01937,1.97474 -8.27872,2.01616 -11.33025,0.1102 z m 87.37182,0.688 c -16.07146,-2.53441 -24.07173,-8.79011 -24.04865,-18.80433 0.023,-9.07711 6.68947,-15.28831 19.42774,-18.09545 6.22797,-1.37248 20.42369,-1.5159 27.06306,-0.27342 13.66223,2.55666 24.20008,14.35376 16.89644,18.91559 -2.2578,1.4102 -4.06407,1.523 -24.3843,1.523 -16.09432,0 -21.94586,0.2406 -21.94586,0.90183 0,0.49603 1.12155,2.34892 2.49233,4.11754 5.18778,6.69348 17.41737,7.47217 30.58958,1.94767 8.21769,-3.44653 8.64301,-3.52979 12.10919,-2.37115 5.90725,1.97461 0.41841,7.80705 -9.97533,10.59978 -7.12967,1.91568 -21.02932,2.67358 -28.2242,1.53897 z m 24.70802,-22.90202 c 0,-2.0291 -4.28046,-6.17888 -7.41916,-7.19262 -1.88799,-0.60979 -5.88673,-1.10873 -8.88617,-1.10873 -6.66076,0 -11.86205,2.41416 -13.82996,6.41916 l -1.33606,2.71898 h 15.73569 c 10.6215,0 15.73566,-0.27196 15.73566,-0.83679 z m 25.15349,21.76927 c -2.90373,-1.8136 -3.38692,-6.2387 -2.97925,-27.28334 0.47823,-24.68365 -1.94128,-22.58661 26.05979,-22.58661 10.95709,0 22.73545,0.37684 26.17417,0.83747 15.25975,2.04408 22.69618,11.9855 15.70899,21.00063 -4.83044,6.23245 -15.0107,8.62242 -36.72794,8.62242 h -13.15517 v 8.58794 c 0,10.30855 -1.18391,11.9729 -8.51657,11.9729 -2.59634,0 -5.55015,-0.51814 -6.56402,-1.15141 z m 42.09282,-27.80989 c 4.41503,-1.4147 7.06886,-3.91558 7.09865,-6.68951 0.0642,-5.95025 -5.49679,-8.00007 -21.91875,-8.07988 l -11.58253,-0.0564 -0.35344,7.17728 c -0.19445,3.94747 -0.046,7.6811 0.33455,8.29701 0.56445,0.91869 2.74188,1.04327 12.12545,0.69358 6.29059,-0.23428 12.72382,-0.83838 14.29597,-1.34219 z m 31.21883,27.42997 c -8.00792,-2.70957 -11.05978,-7.55261 -7.8154,-12.40246 2.68945,-4.02035 7.32727,-5.39033 25.94999,-7.66531 9.11357,-1.11331 17.05675,-2.2121 17.65157,-2.44171 1.25527,-0.48458 1.41587,-2.70486 0.32395,-4.48182 -1.02226,-1.66388 -6.84895,-3.46091 -11.22182,-3.46091 -7.64812,0 -11.64298,1.03274 -16.66941,4.30922 -2.78925,1.81827 -6.02453,3.30591 -7.1894,3.30591 -7.83143,0 -9.3148,-4.832 -2.68276,-8.73869 5.48092,-3.22865 13.54962,-4.59417 26.93819,-4.55892 23.55507,0.0619 28.65154,3.86624 28.65154,21.3865 0,3.91573 0.6762,8.6985 1.5026,10.62843 1.36951,3.19826 1.29496,3.6037 -0.84264,4.57996 -4.01112,1.83197 -9.06633,1.31784 -13.0172,-1.32379 l -3.58188,-2.39497 -6.96582,2.20456 c -9.2926,2.94096 -23.98048,3.43981 -31.0317,1.054 z m 27.86679,-5.25662 c 6.44691,-1.82856 9.00088,-4.1641 9.00088,-8.23101 0,-3.77053 0.67074,-3.68281 -13.75694,-1.7993 -11.28126,1.47276 -15.5042,3.03855 -15.5042,5.74879 0,4.9828 10.19328,7.13689 20.26026,4.28152 z"
       id="path4592"
       inkscape:connector-curvature="0" />
  </g>
</svg>
