<?xml version="1.0" encoding="UTF-8" standalone="no"?>
<!-- Created with Inkscape (http://www.inkscape.org/) -->

<svg
   xmlns:dc="http://purl.org/dc/elements/1.1/"
   xmlns:cc="http://creativecommons.org/ns#"
   xmlns:rdf="http://www.w3.org/1999/02/22-rdf-syntax-ns#"
   xmlns:svg="http://www.w3.org/2000/svg"
   xmlns="http://www.w3.org/2000/svg"
   xmlns:sodipodi="http://sodipodi.sourceforge.net/DTD/sodipodi-0.dtd"
   xmlns:inkscape="http://www.inkscape.org/namespaces/inkscape"
   width="500mm"
   height="250mm"
   viewBox="0 0 500 250"
   version="1.1"
   id="svg8"
   sodipodi:docname="servipag.svg"
   inkscape:version="0.92.1 r15371">
  <defs
     id="defs2" />
  <sodipodi:namedview
     id="base"
     pagecolor="#ffffff"
     bordercolor="#666666"
     borderopacity="1.0"
     inkscape:pageopacity="0.0"
     inkscape:pageshadow="2"
     inkscape:zoom="0.35355339"
     inkscape:cx="750.11397"
     inkscape:cy="294.63715"
     inkscape:document-units="mm"
     inkscape:current-layer="layer1"
     showgrid="false"
     inkscape:window-width="1920"
     inkscape:window-height="1030"
     inkscape:window-x="0"
     inkscape:window-y="0"
     inkscape:window-maximized="1"
     showguides="true"
     inkscape:guide-bbox="true">
    <sodipodi:guide
       position="48.683333,167.74583"
       orientation="0,1"
       id="guide4573"
       inkscape:locked="false" />
    <sodipodi:guide
       position="125.94167,67.733332"
       orientation="0,1"
       id="guide4575"
       inkscape:locked="false" />
    <sodipodi:guide
       position="29.633333,167.74583"
       orientation="1,0"
       id="guide4577"
       inkscape:locked="false" />
    <sodipodi:guide
       position="470.95833,167.74583"
       orientation="1,0"
       id="guide4579"
       inkscape:locked="false" />
  </sodipodi:namedview>
  <metadata
     id="metadata5">
    <rdf:RDF>
      <cc:Work
         rdf:about="">
        <dc:format>image/svg+xml</dc:format>
        <dc:type
           rdf:resource="http://purl.org/dc/dcmitype/StillImage" />
        <dc:title></dc:title>
      </cc:Work>
    </rdf:RDF>
  </metadata>
  <g
     inkscape:groupmode="layer"
     id="layer2"
     inkscape:label="Card"
     style="display:inline">
    <rect
       style="fill:#cccccc;fill-opacity:1;stroke-width:0.21824281"
       id="rect4499"
       width="500.00049"
       height="170.0974"
       x="-0.00024414062"
       y="39.951302"
       ry="4.2642946" />
    <rect
       style="fill:#ffffff;fill-opacity:1;stroke-width:0.21558109"
       id="rect4499-6"
       width="493.10748"
       height="162.0092"
       x="3.4462585"
       y="43.995399"
       ry="4.160913" />
  </g>
  <g
     inkscape:label="Logo"
     inkscape:groupmode="layer"
     id="layer1"
     transform="translate(0,-47)"
     style="display:inline">
    <path
       style="fill:#cccccc;stroke-width:0.90600747"
       d="m 62.918339,207.44241 c -3.65258,-9.52825 -5.089328,-19.53369 -5.089328,-35.44239 0,-15.90871 1.436748,-25.91418 5.089328,-35.4424 l 1.279835,-3.33855 H 173.54203 282.88592 l -2.53799,5.91174 c -4.58802,10.68679 -6.30813,19.68337 -6.28441,32.86921 0.023,13.20242 1.77622,22.36831 6.28441,32.8692 l 2.53799,5.91171 H 173.54203 64.198174 Z m 43.807121,-12.32873 c 2.51638,-0.81449 5.9618,-2.86959 7.6677,-4.57357 2.67952,-2.67647 3.14501,-3.78614 3.44647,-8.21609 0.60708,-8.92183 -2.48407,-12.30604 -14.57628,-15.9584 -3.498555,-1.05672 -6.879819,-2.48675 -7.513865,-3.17782 -1.489227,-1.62318 -0.57668,-4.16731 1.811481,-5.0505 2.615204,-0.96717 11.818794,-0.65215 14.598224,0.49964 2.27684,0.9435 2.32099,0.88584 2.91295,-3.8053 0.39855,-3.15838 0.26338,-5.13151 -0.40153,-5.85609 -0.64382,-0.70173 -4.63617,-1.09322 -11.15726,-1.09408 -9.343094,-9.3e-4 -10.546375,0.20842 -15.055317,2.62178 -5.382785,2.88117 -7.685274,6.53328 -7.679502,12.18094 0.0066,6.87423 4.036368,10.57064 15.37524,14.10496 3.088069,0.96252 6.163219,2.24626 6.833639,2.85272 1.59992,1.44725 1.55217,4.12154 -0.10037,5.6163 -1.7859,1.61549 -12.063706,1.45305 -16.605448,-0.2624 l -3.605743,-1.36195 -0.516395,2.81424 c -1.049779,5.72102 -0.641163,8.188 1.43619,8.67116 1.07392,0.24989 2.733639,0.63412 3.688234,0.85416 4.275541,0.98548 15.238792,0.50071 19.441552,-0.85963 z m 51.28573,-4.19616 v -4.72936 h -11.28167 -11.28163 v -4.72939 -4.72939 h 9.97992 9.97993 v -5.20229 -5.20233 h -9.97993 -9.97992 v -4.25646 -4.25643 h 10.84773 10.84773 v -4.72939 -4.72936 h -17.79026 -17.7903 v 23.6469 23.6469 h 18.2242 18.2242 z m 17.35636,-4.25642 v -8.98582 h 3.33679 c 4.24537,0 5.63728,1.66779 8.80453,10.54976 l 2.47793,6.94895 7.00937,0.27491 c 3.85519,0.15122 7.00941,-0.004 7.00941,-0.34713 0,-1.82237 -8.15801,-21.32803 -9.18122,-21.95215 -0.89254,-0.5444 -0.44729,-1.18035 1.71505,-2.44957 3.66016,-2.14844 5.29662,-5.41335 5.29662,-10.56735 0,-4.75256 -1.88649,-7.47003 -6.94253,-10.00061 -2.93588,-1.46945 -5.78022,-1.74061 -18.44117,-1.75817 l -14.96987,-0.0214 v 23.6469 23.6469 h 6.94256 6.94253 z m 0,-24.11984 v -4.72939 l 4.12214,0.0143 c 4.99959,0.0179 8.37023,1.71094 8.7244,4.38473 0.4544,3.43093 -2.0253,5.06012 -7.70161,5.06012 h -5.14493 z m 67.50207,11.58697 c 4.26879,-11.83528 8.0363,-22.47638 8.3722,-23.6469 0.59839,-2.08503 0.47011,-2.12821 -6.3264,-2.12821 h -6.93715 l -5.48773,18.07331 -5.48775,18.07331 -5.28658,-17.83686 -5.28658,-17.83683 -7.45273,-0.27241 -7.45273,-0.27242 4.29503,12.09576 c 2.36228,6.65269 6.1412,17.30995 8.39761,23.68279 l 4.10256,11.58697 h 8.3944 8.39438 z m 25.35458,-2.12821 v -23.6469 h -6.94257 -6.94256 v 23.6469 23.6469 h 6.94256 6.94257 z m 142.3223,38.2703 c 0,-0.281 0.73599,-2.08982 1.63551,-4.01998 0.89956,-1.93013 2.73574,-7.12734 4.08045,-11.54929 2.2589,-7.42831 2.44491,-9.15531 2.44491,-22.70103 0,-13.54573 -0.18597,-15.27276 -2.44491,-22.70104 -1.34471,-4.42198 -3.18089,-9.61916 -4.08045,-11.54932 -0.89952,-1.93012 -1.63551,-3.73913 -1.63551,-4.01998 0,-0.28099 5.68244,-0.51061 12.62766,-0.51061 h 12.62766 l 1.27981,3.33855 c 3.65261,9.52822 5.08936,19.53369 5.08936,35.4424 0,15.9087 -1.43675,25.91414 -5.08936,35.44239 l -1.27981,3.33852 h -12.62766 c -6.94522,0 -12.62766,-0.22987 -12.62766,-0.51061 z m -29.50584,-15.1293 c -8.96943,-2.74235 -14.90863,-8.46459 -17.04991,-16.42704 -3.51607,-13.07454 2.75673,-25.0278 15.31427,-29.18259 5.19441,-1.71859 21.30223,-2.24211 27.19347,-0.8838 l 3.32842,0.76744 -0.60613,4.90782 c -0.33341,2.69931 -0.7311,5.05668 -0.88381,5.23857 -0.15252,0.18197 -1.76826,-0.21878 -3.5901,-0.89016 -1.82185,-0.67145 -6.1415,-1.18586 -9.59922,-1.1431 -7.15222,0.0887 -13.26538,2.75927 -16.11461,7.04015 -2.16939,3.25944 -2.23315,10.92234 -0.12332,14.81537 2.65688,4.90232 11.16064,8.63987 16.39792,7.2071 1.9949,-0.54569 2.22151,-1.06774 2.22151,-5.11767 v -4.50997 l -3.68823,0.0629 -3.68824,0.0629 -0.26436,-4.43632 -0.26436,-4.43632 h 10.91976 10.91979 l -0.2414,12.93902 -0.24141,12.93899 -2.60346,0.81895 c -5.21045,1.63901 -22.25587,1.78094 -27.33628,0.22772 z m -98.93137,-23.24207 v -23.748 l 13.23426,0.37466 c 11.19812,0.3171 13.86485,0.6865 17.33323,2.40141 5.72705,2.83177 7.80676,6.69842 7.39202,13.74342 -0.53755,9.13068 -6.00122,13.62645 -17.78272,14.63241 l -6.2917,0.53721 v 7.90343 7.90343 h -6.94253 -6.94256 z m 22.99672,-3.68203 c 0.71621,-0.64786 1.3022,-2.59142 1.3022,-4.31903 0,-3.9079 -2.55376,-6.08602 -7.13565,-6.08602 h -3.27818 v 6.27121 6.2712 l 3.90471,-0.47969 c 2.14762,-0.26383 4.49071,-1.00978 5.20692,-1.65767 z m 7.69656,25.99476 c 0.27781,-0.78943 4.507,-11.43053 9.39796,-23.64694 l 8.89266,-22.21162 h 8.27232 8.27231 l 8.86583,21.99162 c 4.8762,12.09539 9.11422,22.7365 9.41781,23.6469 0.49783,1.49294 -0.16367,1.65528 -6.74511,1.65528 h -7.29706 l -1.83323,-4.7294 -1.83319,-4.72936 h -9.23486 -9.23485 l -1.80325,4.72936 -1.80325,4.7294 h -6.9197 c -5.82955,0 -6.8401,-0.2263 -6.41439,-1.43524 z m 31.78969,-18.39267 c 0,-0.79429 -1.84175,-6.54619 -4.55433,-14.22365 -0.76721,-2.17139 -1.07356,-1.70751 -3.74793,5.67526 -1.60183,4.42199 -2.92748,8.3592 -2.94592,8.74938 -0.0197,0.39017 2.5049,0.70938 5.60737,0.70938 3.10243,0 5.64081,-0.40966 5.64081,-0.91037 z"
       id="path4624"
       inkscape:connector-curvature="0" />
  </g>
</svg>
