<?xml version="1.0" encoding="UTF-8" standalone="no"?>
<!-- Created with Inkscape (http://www.inkscape.org/) -->

<svg
   xmlns:dc="http://purl.org/dc/elements/1.1/"
   xmlns:cc="http://creativecommons.org/ns#"
   xmlns:rdf="http://www.w3.org/1999/02/22-rdf-syntax-ns#"
   xmlns:svg="http://www.w3.org/2000/svg"
   xmlns="http://www.w3.org/2000/svg"
   xmlns:sodipodi="http://sodipodi.sourceforge.net/DTD/sodipodi-0.dtd"
   xmlns:inkscape="http://www.inkscape.org/namespaces/inkscape"
   width="500mm"
   height="250mm"
   viewBox="0 0 500 250"
   version="1.1"
   id="svg8"
   sodipodi:docname="webpayplus.svg"
   inkscape:version="0.92.1 r15371">
  <defs
     id="defs2" />
  <sodipodi:namedview
     id="base"
     pagecolor="#ffffff"
     bordercolor="#666666"
     borderopacity="1.0"
     inkscape:pageopacity="0.0"
     inkscape:pageshadow="2"
     inkscape:zoom="0.5"
     inkscape:cx="1255.9903"
     inkscape:cy="271.23015"
     inkscape:document-units="mm"
     inkscape:current-layer="layer1"
     showgrid="false"
     inkscape:window-width="1920"
     inkscape:window-height="1030"
     inkscape:window-x="0"
     inkscape:window-y="0"
     inkscape:window-maximized="1" />
  <metadata
     id="metadata5">
    <rdf:RDF>
      <cc:Work
         rdf:about="">
        <dc:format>image/svg+xml</dc:format>
        <dc:type
           rdf:resource="http://purl.org/dc/dcmitype/StillImage" />
        <dc:title></dc:title>
      </cc:Work>
    </rdf:RDF>
  </metadata>
  <g
     inkscape:groupmode="layer"
     id="layer2"
     inkscape:label="Card"
     style="display:inline">
    <rect
       style="fill:#cccccc;fill-opacity:1;stroke-width:0.21824281"
       id="rect4499"
       width="500.00049"
       height="170.0974"
       x="-0.00024414062"
       y="39.951302"
       ry="4.2642946" />
    <rect
       style="fill:#ffffff;fill-opacity:1;stroke-width:0.21558109"
       id="rect4499-6"
       width="493.10748"
       height="162.0092"
       x="3.4462585"
       y="43.995399"
       ry="4.160913" />
  </g>
  <g
     inkscape:label="Logo"
     inkscape:groupmode="layer"
     id="layer1"
     transform="translate(0,-47)"
     style="display:inline">
    <path
       style="fill:#cccccc;stroke-width:1.11430204"
       d="m 218.72523,190.12304 v -39.08249 h 6.14838 6.14834 l -0.44786,3.96487 c -0.51667,4.57403 0.13588,4.91158 3.05236,1.5787 5.84344,-6.67788 19.39874,-8.83775 28.39396,-4.52422 5.47503,2.62548 10.85536,8.39859 13.16837,14.12966 l 1.77058,4.38717 2.21425,-4.62544 c 2.59518,-5.42117 9.49781,-12.19976 14.71898,-14.45441 8.55365,-3.69378 23.37781,-0.82394 27.03856,5.23439 2.00232,3.31367 3.01781,2.73287 3.01781,-1.72585 v -3.96487 h 10.81866 10.81869 l 2.99934,8.77939 c 6.32999,18.52866 10.74458,29.67448 11.54967,29.16022 0.46066,-0.29414 1.16284,-1.8745 1.56042,-3.51177 0.39769,-1.63726 3.23148,-10.05329 6.29755,-18.70236 l 5.57466,-15.72548 h 6.54608 c 5.77289,0 6.46256,0.2342 5.83921,1.98243 -0.38899,1.09034 -6.97695,18.67013 -14.64035,39.06623 l -13.93348,37.08378 -6.30245,0.0171 c -3.46637,0.009 -6.30248,-0.47063 -6.30248,-1.06572 0,-0.59514 1.95322,-5.66941 4.34052,-11.27619 l 4.34052,-10.1942 -8.45084,-21.85898 -8.45079,-21.85902 -0.29661,22.93973 -0.29662,22.93977 h -6.00574 -6.00575 v -3.96493 c 0,-2.18068 -0.20879,-3.96488 -0.46373,-3.96488 -0.25519,0 -1.90343,1.488 -3.66307,3.30664 -6.02969,6.23179 -19.1948,7.3986 -28.44554,2.52102 -5.05853,-2.6672 -10.19846,-8.34667 -12.30061,-13.59187 l -1.47338,-3.67631 -2.66622,4.87065 c -1.46642,2.67884 -3.7393,6.06725 -5.05091,7.52975 -8.41243,9.3804 -26.24097,10.62385 -34.73567,2.42258 -1.92688,-1.86033 -3.69791,-3.38246 -3.93558,-3.38246 -0.23779,0 -0.43212,6.37214 -0.43212,14.16032 v 14.16037 h -6.02845 -6.02845 z m 39.2637,4.87236 c 4.1413,-2.64532 7.81961,-9.73308 7.81961,-15.0678 0,-5.26066 -3.8018,-12.72494 -7.74285,-15.20199 -5.97513,-3.75552 -11.26279,-4.07745 -17.17388,-1.04572 -6.93685,3.55788 -10.10968,8.65707 -10.10968,16.24771 0,7.48033 3.1389,12.63271 9.87355,16.2069 5.75876,3.0563 11.33927,2.68954 17.33325,-1.1391 z m 56.13914,1.01524 c 5.3918,-2.94686 9.82089,-10.17215 9.82089,-16.02118 0,-10.5872 -10.24436,-19.80131 -20.28523,-18.24509 -8.78763,1.36196 -14.78936,8.74095 -14.78936,18.18323 0,7.90318 3.12718,12.97951 10.4152,16.90698 4.59832,2.47803 9.27175,2.21853 14.8385,-0.82394 z M 114.55946,206.2658 c -8.20314,-4.43735 -12.6203,-10.2737 -15.228438,-20.12109 l -1.853551,-6.99828 -1.910805,7.18752 c -1.050953,3.95315 -2.899411,10.65416 -4.107703,14.8911 l -2.196897,7.70354 -5.691568,-0.34039 -5.691609,-0.33995 -5.103351,-19.25803 c -2.806822,-10.59195 -5.369268,-18.49338 -5.694302,-17.5588 -0.325199,0.93457 -2.371801,8.83605 -4.548441,17.5588 -2.176598,8.72276 -4.217565,16.77683 -4.535474,17.89795 -0.477276,1.68321 -1.562448,1.97928 -6.227877,1.69926 l -5.649893,-0.3391 -7.886352,-27.18784 c -4.337455,-14.95331 -7.919535,-28.0799 -7.960092,-29.17027 -0.108952,-2.92918 11.56678,-2.92918 12.398006,0 0.309457,1.09037 2.607146,9.88391 5.106043,19.54128 2.498898,9.65734 4.677858,17.70164 4.842156,17.87629 0.164464,0.17468 2.423087,-8.13285 5.019545,-18.46093 l 4.720858,-18.7784 5.440398,0.33568 5.440439,0.33567 4.673384,17.91512 c 2.570358,9.8533 4.86668,18.11489 5.102895,18.35903 0.236132,0.24404 2.559298,-8.45487 5.162342,-19.33116 l 4.732831,-19.77505 h 6.479338 6.479338 l -0.7294,3.11529 c -0.40101,1.71339 -1.15042,4.29542 -1.66502,5.73787 -1.4943,4.18881 -1.17337,4.13439 3.22183,-0.54641 5.35663,-5.70469 11.31967,-8.61202 18.87233,-9.20134 10.97529,-0.85643 19.29671,2.99315 25.94556,12.00259 l 3.58043,4.85159 0.302,-17.89202 0.302,-17.89204 h 6.43505 6.43509 l -0.19097,13.32983 -0.19098,13.32978 5.0079,-3.64822 c 4.10505,-2.99052 6.29773,-3.73312 12.16275,-4.1191 11.88556,-0.78215 21.81408,4.70391 27.1198,14.98524 3.42619,6.63919 3.45138,22.98182 0.0456,29.57562 -8.35763,16.18096 -28.43278,21.43956 -40.39771,10.58198 l -3.82186,-3.46814 v 3.51579 3.51584 h -6.57648 -6.57649 l -0.0576,-7.64655 c -0.0563,-7.5169 -0.0882,-7.59855 -1.87953,-4.81452 -3.45925,5.37677 -10.36039,11.19998 -15.35964,12.96051 -8.27046,2.91248 -15.46478,2.32099 -23.29645,-1.91548 z m 22.29016,-10.69963 c 1.68884,-0.87819 3.34462,-2.33469 3.67951,-3.23672 0.4436,-1.19481 2.51108,-1.64001 7.61617,-1.64001 h 7.00724 v -3.39848 -3.39848 h -21.37355 c -20.69477,0 -21.37359,0.0724 -21.37359,2.28232 0,1.25523 1.61088,4.09899 3.57972,6.31936 5.28985,5.96574 13.09062,7.11431 20.8645,3.07201 z m 57.17501,-1.32069 c 9.86845,-5.88242 10.11113,-22.4491 0.43804,-29.90041 -7.13359,-5.49503 -19.96512,-2.34222 -24.15791,5.93581 -3.78756,7.47798 -1.68623,18.59049 4.44197,23.49055 4.91337,3.92871 13.14282,4.13105 19.2779,0.47405 z m -50.46414,-21.5421 c 1.04014,-1.73942 -4.20356,-8.56203 -8.15923,-10.61602 -2.09793,-1.08939 -5.43713,-1.9815 -7.42039,-1.98248 -6.88304,-0.003 -15.57547,6.61165 -15.57547,11.85308 0,1.48039 2.27292,1.73908 15.28043,1.73908 8.40427,0 15.54784,-0.44716 15.87466,-0.99366 z m 249.0762,21.76217 c -0.40184,-0.41531 -0.73073,-10.3461 -0.73073,-22.06826 v -21.31302 l 17.81127,-18.14354 c 9.79625,-9.97897 18.30955,-18.14516 18.91853,-18.14709 1.80032,-0.004 41.09189,41.20703 41.09189,43.1011 0,0.9538 -7.80325,9.74233 -17.34062,19.53008 l -17.34058,17.79596 h -20.83956 c -11.46172,0 -21.16832,-0.33996 -21.5702,-0.75523 z m 8.03789,-18.5427 c 0,-4.16835 0.18683,-4.46784 2.12013,-3.39848 1.16604,0.64497 3.31907,1.17267 4.78453,1.17267 3.2218,0 8.38518,-3.9672 8.58477,-6.59594 0.0791,-1.04513 0.44927,-0.11603 0.82207,2.06465 0.42015,2.45778 1.3027,3.96489 2.32188,3.96489 1.34566,0 1.7004,-2.31363 1.95401,-12.74429 0.29579,-12.16259 0.20838,-12.74428 -1.91813,-12.74428 -2.01574,0 -2.23211,0.72868 -2.27093,7.64654 -0.0414,7.38755 -0.0928,7.52842 -1.51236,4.15875 -0.88546,-2.10168 -2.89341,-4.09744 -5.05248,-5.02174 -3.11682,-1.33431 -3.98964,-1.29269 -6.70826,0.31983 -1.71888,1.01961 -3.12523,1.36774 -3.12523,0.77363 0,-0.59406 -0.73984,-1.08011 -1.6441,-1.08011 -1.36613,0 -1.64414,2.20269 -1.64414,13.02748 0,10.82482 0.27797,13.02751 1.64414,13.02751 1.18982,0 1.6441,-1.2631 1.6441,-4.57115 z m 2.43605,-7.38773 c -2.68374,-1.9428 -3.30091,-7.08502 -1.12075,-9.33823 0.72343,-0.74769 2.92563,-1.35939 4.89381,-1.35939 3.77948,0 5.84779,2.35494 5.84779,6.65824 0,2.22139 -3.7207,5.80282 -6.02845,5.80282 -0.63598,0 -2.25258,-0.79354 -3.5924,-1.76344 z m 31.61451,3.98925 c 1.46145,-0.80836 2.1201,-0.80836 2.1201,0 0,2.12964 2.38584,1.21836 2.98234,-1.13915 l 0.58495,-2.31182 1.56675,2.31182 c 2.37686,3.50719 8.53319,3.14981 10.93246,-0.63465 2.32822,-3.67242 1.20191,-5.90152 -4.38261,-8.67391 -4.39413,-2.18141 -5.02593,-3.5944 -2.12208,-4.74606 1.14118,-0.4526 2.38249,-0.0522 3.13504,1.01165 0.6852,0.96849 1.84415,1.76087 2.57546,1.76087 2.29628,0 0.73644,-3.81096 -2.27482,-5.55779 -2.58117,-1.49735 -3.17772,-1.4693 -5.74667,0.27059 -4.45672,3.01807 -3.84232,6.9925 1.51783,9.81875 4.97713,2.62425 5.85947,5.66411 1.6441,5.66411 -1.5071,0 -2.74016,-0.50977 -2.74016,-1.13282 0,-0.62305 -0.9865,-1.13281 -2.19218,-1.13281 -1.94858,0 -2.19217,-0.75522 -2.19217,-6.79696 0,-5.98638 -0.25519,-6.79696 -2.13986,-6.79696 -1.85492,0 -2.18331,0.92709 -2.46617,6.96236 -0.2411,5.14711 -0.82642,7.28694 -2.24445,8.20721 -3.6308,2.35627 -5.71767,-0.46043 -6.08077,-8.20721 -0.28295,-6.03527 -0.61125,-6.96236 -2.46617,-6.96236 -3.9386,0 -2.60143,15.50097 1.58647,18.39106 1.74572,1.20474 5.94837,1.0518 8.40261,-0.30571 z"
       id="path4496"
       inkscape:connector-curvature="0" />
  </g>
</svg>
