<svg width="142" height="106" viewBox="0 0 142 106" fill="none" xmlns="http://www.w3.org/2000/svg">
<path d="M126.289 2.51341L141.26 77.9166C141.534 79.299 140.629 80.6544 139.248 80.9286L18.7206 104.858C17.3396 105.133 15.9851 104.226 15.7106 102.843L0.739928 27.4402C0.465466 26.0578 1.37085 24.7024 2.75189 24.4282L123.279 0.498508C124.66 0.224313 126.015 1.13102 126.289 2.51341Z" fill="#E5E5E5"/>
<path d="M103.316 88.0626L18.7206 104.858C17.3396 105.132 15.9851 104.226 15.7106 102.843L1.40363 30.7831C18.7345 52.0827 51.9151 82.3576 103.316 88.0626Z" fill="#CCCCCC"/>
<path d="M128.285 12.5672L2.73602 37.494L6.22918 55.088L131.779 30.1613L128.285 12.5672Z" fill="#5CD3A9"/>
<path d="M112.657 65.3079C112.373 63.8752 112.706 62.3983 113.576 61.259C114.033 60.6717 114.2 59.9333 114.06 59.2295C113.915 58.5006 113.479 57.8818 112.857 57.509C110.695 56.214 108.125 55.7577 105.639 56.2512C100.09 57.353 96.4882 62.7444 97.591 68.2991C98.6939 73.8538 104.082 77.4605 109.631 76.3587C112.117 75.8652 114.318 74.4616 115.821 72.4388C116.254 71.8565 116.421 71.1181 116.276 70.3892C116.131 69.6603 115.67 69.0465 115.053 68.6988C113.814 67.9782 112.941 66.7406 112.657 65.3079Z" fill="#3A7063"/>
<path d="M119.675 74.3646C125.222 73.2633 128.825 67.8692 127.723 62.3167C126.62 56.7641 121.23 53.1557 115.683 54.2571C110.136 55.3584 106.533 60.7524 107.635 66.305C108.737 71.8575 114.128 75.4659 119.675 74.3646Z" fill="#5CD3A9"/>
<path d="M33.3193 73.2222L23.2753 75.2163L24.2734 80.2432L34.3173 78.2491L33.3193 73.2222Z" fill="#4FA18F"/>
<path d="M60.9401 67.7383L38.3412 72.2251L39.3393 77.252L61.9382 72.7652L60.9401 67.7383Z" fill="#5CD3A9"/>
<path d="M62.9362 77.7921L25.2714 85.2701L26.2695 90.297L63.9343 82.8189L62.9362 77.7921Z" fill="#4FA18F"/>
<path d="M55.1836 74.1062L39.3393 77.252L38.3412 72.2251L47.9583 70.3157C50.2813 71.631 52.6998 72.9012 55.1836 74.1062Z" fill="#4FA18F"/>
<path d="M21.9229 51.9722L6.22918 55.088L2.73602 37.494L6.50251 36.7462C10.8696 41.6528 15.9996 46.852 21.9229 51.9722Z" fill="#4FA18F"/>
</svg>
