<svg width="104" height="116" viewBox="0 0 104 116" fill="none" xmlns="http://www.w3.org/2000/svg">
<path d="M73.1852 112.133H67.4074C64.2296 112.133 61.6296 109.523 61.6296 106.333V98.6C61.6296 97.5367 60.763 96.6667 59.7037 96.6667H44.2963C43.237 96.6667 42.3704 97.5367 42.3704 98.6V106.333C42.3704 109.523 39.7704 112.133 36.5926 112.133H30.8148C29.7556 112.133 28.8889 113.003 28.8889 114.067C28.8889 115.13 29.7556 116 30.8148 116H36.5926H67.4074H73.1852C74.2444 116 75.1111 115.13 75.1111 114.067C75.1111 113.003 74.2444 112.133 73.1852 112.133Z" fill="#CCCCCC"/>
<path d="M104 17.4V87H0V17.4C0 16.3367 0.866667 15.4667 1.92593 15.4667H102.074C103.133 15.4667 104 16.3367 104 17.4Z" fill="#5CD3A9"/>
<path d="M104 85.0667V98.6C104 99.6633 103.133 100.533 102.074 100.533H1.92593C0.866667 100.533 0 99.6633 0 98.6V85.0667H104Z" fill="#E5E5E5"/>
<path d="M96.2963 23.2H7.7037V77.3333H96.2963V23.2Z" fill="#3A7063"/>
<path d="M52 94.7333C53.0637 94.7333 53.9259 93.8677 53.9259 92.8C53.9259 91.7323 53.0637 90.8667 52 90.8667C50.9363 90.8667 50.0741 91.7323 50.0741 92.8C50.0741 93.8677 50.9363 94.7333 52 94.7333Z" fill="#E5E5E5"/>
<path d="M34.5126 87H0V48.0627C6.91407 61.0933 17.7378 75.69 34.5126 87Z" fill="#3A7063"/>
<path d="M22.3407 77.3333H7.7037V60.5907C11.7096 66.294 16.5437 71.9973 22.3407 77.3333Z" fill="#4FA18F"/>
<path d="M63.0933 100.533H1.92593C0.866667 100.533 0 99.6633 0 98.6V85.0667H31.7585C40.4059 91.35 50.7481 96.7633 63.0933 100.533Z" fill="#CCCCCC"/>
<path d="M77.037 1.93333V56.0667C77.037 57.13 76.1704 58 75.1111 58H28.8889C27.8296 58 26.963 57.13 26.963 56.0667V1.93333C26.963 0.87 27.8296 0 28.8889 0H75.1111C76.1704 0 77.037 0.87 77.037 1.93333Z" fill="#E5E5E5"/>
<path d="M77.037 54.6747V56.0667C77.037 57.13 76.1704 58 75.1111 58H28.8889C27.8296 58 26.963 57.13 26.963 56.0667V13.4367C36.8815 29.3673 52.9052 47.3667 77.037 54.6747Z" fill="#CCCCCC"/>
<path d="M69.3333 17.4V56.0667C69.3333 57.13 68.4667 58 67.4074 58H36.5926C35.5333 58 34.6667 57.13 34.6667 56.0667V17.4C34.6667 16.3367 35.5333 15.4667 36.5926 15.4667C39.7704 15.4667 42.3704 12.8567 42.3704 9.66667C42.3704 8.60334 43.237 7.73334 44.2963 7.73334H59.7037C60.763 7.73334 61.6296 8.60334 61.6296 9.66667C61.6296 12.8567 64.2296 15.4667 67.4074 15.4667C68.4667 15.4667 69.3333 16.3367 69.3333 17.4Z" fill="#E5E5E5"/>
<path d="M69.3333 51.8713V56.0667C69.3333 57.13 68.4667 58 67.4074 58H36.5926C35.5333 58 34.6667 57.13 34.6667 56.0667V24.418C43.1407 35.1673 54.4844 45.5687 69.3333 51.8713Z" fill="#CCCCCC"/>
<path d="M61.6296 40.6C61.6296 42.9587 60.7822 45.1047 59.4148 46.7867C57.6237 48.9133 54.9659 50.2667 52 50.2667C46.6844 50.2667 42.3704 45.936 42.3704 40.6C42.3704 38.4927 43.0444 36.54 44.1807 34.9547C45.9333 32.5187 48.7837 30.9333 52 30.9333C57.3155 30.9333 61.6296 35.264 61.6296 40.6Z" fill="#5CD3A9"/>
<path d="M59.4148 46.7867C57.6237 48.9133 54.9659 50.2667 52 50.2667C46.6844 50.2667 42.3704 45.936 42.3704 40.6C42.3704 38.4927 43.0444 36.54 44.1807 34.9547C48.6681 39.3047 53.7333 43.3453 59.4148 46.7867Z" fill="#4FA18F"/>
<path d="M80.8889 59.9333H23.1111C22.0518 59.9333 21.1852 59.0633 21.1852 58C21.1852 56.9367 22.0518 56.0667 23.1111 56.0667H80.8889C81.9481 56.0667 82.8148 56.9367 82.8148 58C82.8148 59.0633 81.9481 59.9333 80.8889 59.9333Z" fill="#4FA18F"/>
</svg>
