<?xml version="1.0" encoding="UTF-8" standalone="no"?>
<!DOCTYPE svg PUBLIC "-//W3C//DTD SVG 1.1//EN" "http://www.w3.org/Graphics/SVG/1.1/DTD/svg11.dtd">
<svg version="1.1" xmlns="http://www.w3.org/2000/svg" xmlns:xlink="http://www.w3.org/1999/xlink" preserveAspectRatio="xMidYMid meet" viewBox="0 0 640 640" width="640" height="640"><defs><path d="M178.25 38.63C157.89 34.5 139.36 53.62 139.36 78.78C139.36 127.03 139.36 513 139.36 561.25C139.36 586.41 157.89 605.53 178.25 601.36C232.57 590.29 280.54 556.45 315.33 508.2C325.78 493.72 326.69 472.22 317.22 456.78C293.77 418.65 279.86 371.32 279.86 320.01C279.86 268.71 293.77 221.38 317.22 183.25C326.72 167.77 325.81 146.31 315.36 131.79C280.54 83.54 232.57 49.7 178.25 38.63Z" id="arTpikKgn"></path><path d="M380.37 187.78C397.37 227.3 407.01 272.29 407.01 320.02C407.01 367.75 397.37 412.71 380.37 452.26C372.65 470.2 376.68 492.3 390.1 504.28C410.69 522.65 434.43 536.02 460.19 542.93C480.97 548.52 500.64 529.08 500.64 503.17C500.64 466.54 500.64 173.5 500.64 136.87C500.64 110.96 480.97 91.52 460.19 97.12C434.46 104.02 410.69 117.39 390.1 135.76C376.68 147.74 372.65 169.8 380.37 187.78Z" id="apAuJK9Y"></path></defs><g><g><g><use xlink:href="#arTpikKgn" opacity="1" fill="#4fa18f" fill-opacity="1"></use><g><use xlink:href="#arTpikKgn" opacity="1" fill-opacity="0" stroke="#000000" stroke-width="1" stroke-opacity="0"></use></g></g><g><use xlink:href="#apAuJK9Y" opacity="1" fill="#5cd3a9" fill-opacity="1"></use><g><use xlink:href="#apAuJK9Y" opacity="1" fill-opacity="0" stroke="#000000" stroke-width="1" stroke-opacity="0"></use></g></g></g></g></svg>