<svg width="351" height="388" viewBox="0 0 351 388" fill="none" xmlns="http://www.w3.org/2000/svg">
<g clip-path="url(#clip0)">
<path d="M98.7 111.395C54.0679 156.882 -10.1076 213.877 1.34368 277.159C12.795 340.441 138.419 339.495 199.947 332.423C261.475 325.352 347.711 272.049 324.147 190.067C300.582 108.085 163.547 45.2861 98.7 111.395Z" fill="#E6FFF8"/>
<path d="M213.153 299.027C202.775 281.735 174.247 269.323 140.645 269.323C107.043 269.323 78.5148 281.746 68.1364 299.027H63.9349V313.422C63.9349 337.775 98.2788 357.521 140.645 357.521C183.011 357.521 217.355 337.775 217.355 313.422V299.027H213.153Z" fill="#3A7063"/>
<path d="M140.645 343.126C183.01 343.126 217.355 323.382 217.355 299.027C217.355 274.672 183.01 254.928 140.645 254.928C98.279 254.928 63.9349 274.672 63.9349 299.027C63.9349 323.382 98.279 343.126 140.645 343.126Z" fill="#DEF9F2"/>
<path d="M140.645 332.423C172.726 332.423 198.734 317.471 198.734 299.027C198.734 280.583 172.726 265.631 140.645 265.631C108.563 265.631 82.5558 280.583 82.5558 299.027C82.5558 317.471 108.563 332.423 140.645 332.423Z" fill="#5CD3A9"/>
<path d="M170.647 314.619L168.401 313.321C171.539 310.997 173.083 308.593 173.063 306.099H173.073V300.325L171.599 301.904C170.356 300.073 168.34 298.343 165.523 296.713C162.725 295.094 159.747 293.987 156.588 293.404C153.43 292.81 150.351 292.7 147.373 293.052C144.395 293.404 140.655 294.118 136.162 295.174C132.051 296.13 129.153 296.633 127.449 296.663C125.744 296.693 124.13 296.261 122.585 295.365C121.071 294.49 120.229 293.474 120.078 292.328C119.928 291.181 120.6 290.175 122.094 289.31C125.092 287.57 129.685 287.67 135.882 289.602L139.742 283.345V277.43L136.674 282.399C129.213 280.377 122.495 280.659 116.529 283.274L111.144 280.156L116.529 277.36L105.529 277.158V283.073L111.194 286.352C110.743 286.715 110.332 287.087 109.961 287.449L107.424 286.433V292.338C107.404 293.032 107.524 293.726 107.795 294.43C108.838 297.156 111.154 299.56 114.754 301.642C117.491 303.232 120.409 304.328 123.498 304.922C126.586 305.525 129.524 305.676 132.322 305.384C135.12 305.093 138.559 304.439 142.66 303.423C147.243 302.306 150.441 301.733 152.246 301.683C154.061 301.632 155.796 302.095 157.481 303.071C159.105 304.006 160.018 305.083 160.218 306.3C160.419 307.507 159.516 308.694 157.511 309.861C153.72 312.054 149.208 312.235 143.994 310.414L144.756 309.891H142.64C142.389 309.79 142.159 309.71 141.908 309.599L141.637 309.891H136.152V315.806C146.33 319.779 155.315 319.99 163.106 316.429L170.416 320.664L175.741 317.576V311.661L170.647 314.619Z" fill="#3A7063"/>
<path d="M105.538 277.158L110.863 274.07L116.528 277.35C123.297 274.382 131.038 274.402 139.742 277.41L135.881 283.667C129.684 281.735 125.092 281.635 122.094 283.375C120.599 284.24 119.928 285.246 120.078 286.393C120.228 287.539 121.071 288.545 122.585 289.431C124.129 290.326 125.754 290.758 127.448 290.728C129.143 290.698 132.051 290.205 136.162 289.239C140.654 288.183 144.385 287.479 147.373 287.117C150.351 286.765 153.429 286.876 156.588 287.469C159.747 288.063 162.725 289.159 165.522 290.779C169.804 293.263 172.271 295.969 172.923 298.906C173.574 301.844 172.06 304.67 168.39 307.376L175.74 311.631L170.416 314.719L163.106 310.484C155.314 314.035 146.33 313.834 136.152 309.861L141.908 303.664C148.024 306.32 153.219 306.41 157.51 303.926C159.516 302.769 160.418 301.582 160.218 300.365C160.017 299.158 159.105 298.081 157.48 297.136C155.806 296.16 154.061 295.697 152.246 295.748C150.431 295.798 147.242 296.371 142.66 297.488C138.559 298.504 135.119 299.158 132.322 299.449C129.524 299.741 126.586 299.59 123.497 298.987C120.409 298.383 117.491 297.287 114.753 295.707C111.164 293.625 108.837 291.221 107.794 288.495C106.752 285.769 107.885 283.083 111.184 280.428L105.538 277.158Z" fill="#DEF9F2"/>
<path d="M213.153 275.891C202.775 258.599 174.247 246.187 140.645 246.187C107.043 246.187 78.5148 258.61 68.1364 275.891H63.9349V290.286C63.9349 314.639 98.2788 334.385 140.645 334.385C183.011 334.385 217.355 314.639 217.355 290.286V275.891H213.153Z" fill="#3A7063"/>
<path d="M140.645 319.99C183.01 319.99 217.355 300.246 217.355 275.891C217.355 251.536 183.01 231.792 140.645 231.792C98.279 231.792 63.9349 251.536 63.9349 275.891C63.9349 300.246 98.279 319.99 140.645 319.99Z" fill="#DEF9F2"/>
<path d="M140.645 309.287C172.726 309.287 198.734 294.335 198.734 275.891C198.734 257.447 172.726 242.495 140.645 242.495C108.563 242.495 82.5558 257.447 82.5558 275.891C82.5558 294.335 108.563 309.287 140.645 309.287Z" fill="#5CD3A9"/>
<path d="M170.647 291.483L168.401 290.185C171.539 287.862 173.083 285.457 173.063 282.963H173.073V277.189L171.599 278.768C170.356 276.937 168.34 275.207 165.523 273.578C162.725 271.958 159.747 270.852 156.588 270.268C153.43 269.675 150.351 269.564 147.373 269.916C144.395 270.268 140.655 270.982 136.162 272.039C132.051 272.994 129.153 273.497 127.449 273.527C125.744 273.558 124.13 273.125 122.585 272.23C121.071 271.355 120.229 270.339 120.078 269.192C119.928 268.045 120.6 267.039 122.094 266.174C125.092 264.434 129.685 264.534 135.882 266.466L139.742 260.209V254.294L136.674 259.263C129.213 257.242 122.495 257.523 116.529 260.139L111.144 257.02L116.529 254.224L105.529 254.023V259.937L111.194 263.217C110.743 263.579 110.332 263.951 109.961 264.313L107.424 263.297V269.202C107.404 269.896 107.524 270.59 107.795 271.294C108.838 274.02 111.154 276.424 114.754 278.507C117.491 280.096 120.409 281.192 123.498 281.786C126.586 282.389 129.524 282.54 132.322 282.249C135.12 281.957 138.559 281.303 142.66 280.287C147.243 279.171 150.441 278.597 152.246 278.547C154.061 278.497 155.796 278.959 157.481 279.935C159.105 280.87 160.018 281.947 160.218 283.164C160.419 284.371 159.516 285.558 157.511 286.725C153.72 288.918 149.208 289.099 143.994 287.278L144.756 286.755H142.64C142.389 286.654 142.159 286.574 141.908 286.463L141.637 286.755H136.152V292.67C146.33 296.643 155.315 296.854 163.106 293.294L170.416 297.528L175.741 294.44V288.525L170.647 291.483Z" fill="#3A7063"/>
<path d="M105.538 254.023L110.863 250.935L116.528 254.214C123.297 251.246 131.038 251.267 139.742 254.274L135.881 260.531C129.684 258.6 125.092 258.499 122.094 260.239C120.599 261.104 119.928 262.11 120.078 263.257C120.228 264.404 121.071 265.41 122.585 266.295C124.129 267.19 125.754 267.623 127.448 267.592C129.143 267.562 132.051 267.069 136.162 266.104C140.654 265.048 144.385 264.343 147.373 263.981C150.351 263.629 153.429 263.74 156.588 264.333C159.747 264.927 162.725 266.023 165.522 267.643C169.804 270.127 172.271 272.833 172.923 275.771C173.574 278.708 172.06 281.534 168.39 284.24L175.74 288.495L170.416 291.583L163.106 287.349C155.314 290.899 146.33 290.698 136.152 286.725L141.908 280.528C148.024 283.184 153.219 283.275 157.51 280.79C159.516 279.633 160.418 278.446 160.218 277.229C160.017 276.022 159.105 274.946 157.48 274C155.806 273.024 154.061 272.562 152.246 272.612C150.431 272.662 147.242 273.236 142.66 274.352C138.559 275.368 135.119 276.022 132.322 276.314C129.524 276.605 126.586 276.455 123.497 275.851C120.409 275.247 117.491 274.151 114.753 272.572C111.164 270.489 108.837 268.085 107.794 265.359C106.752 262.633 107.885 259.948 111.184 257.292L105.538 254.023Z" fill="#DEF9F2"/>
<path d="M213.153 254.767C202.775 237.475 174.247 225.062 140.645 225.062C107.043 225.062 78.5148 237.485 68.1364 254.767H63.9349V269.162C63.9349 293.515 98.2788 313.261 140.645 313.261C183.011 313.261 217.355 293.515 217.355 269.162V254.767H213.153Z" fill="#3A7063"/>
<path d="M140.645 298.866C183.01 298.866 217.355 279.122 217.355 254.767C217.355 230.412 183.01 210.668 140.645 210.668C98.279 210.668 63.9349 230.412 63.9349 254.767C63.9349 279.122 98.279 298.866 140.645 298.866Z" fill="#DEF9F2"/>
<path d="M140.645 288.163C172.726 288.163 198.734 273.211 198.734 254.767C198.734 236.323 172.726 221.371 140.645 221.371C108.563 221.371 82.5558 236.323 82.5558 254.767C82.5558 273.211 108.563 288.163 140.645 288.163Z" fill="#5CD3A9"/>
<path d="M170.647 270.359L168.401 269.061C171.539 266.738 173.083 264.333 173.063 261.839H173.073V256.065L171.599 257.644C170.356 255.813 168.34 254.083 165.523 252.454C162.725 250.834 159.747 249.728 156.588 249.144C153.43 248.551 150.351 248.44 147.373 248.792C144.395 249.144 140.655 249.858 136.162 250.915C132.051 251.87 129.153 252.373 127.449 252.403C125.744 252.433 124.13 252.001 122.585 251.106C121.071 250.231 120.229 249.215 120.078 248.068C119.928 246.921 120.6 245.915 122.094 245.05C125.092 243.31 129.685 243.41 135.882 245.342L139.742 239.085V233.17L136.674 238.139C129.213 236.118 122.495 236.399 116.529 239.015L111.144 235.896L116.529 233.1L105.529 232.899V238.813L111.194 242.093C110.743 242.455 110.332 242.827 109.961 243.189L107.424 242.173V248.078C107.404 248.772 107.524 249.466 107.795 250.17C108.838 252.896 111.154 255.3 114.754 257.383C117.491 258.972 120.409 260.068 123.498 260.662C126.586 261.265 129.524 261.416 132.322 261.125C135.12 260.833 138.559 260.179 142.66 259.163C147.243 258.046 150.441 257.473 152.246 257.423C154.061 257.373 155.796 257.835 157.481 258.811C159.105 259.746 160.018 260.823 160.218 262.04C160.419 263.247 159.516 264.434 157.511 265.601C153.72 267.794 149.208 267.975 143.994 266.154L144.756 265.631H142.64C142.389 265.53 142.159 265.45 141.908 265.339L141.637 265.631H136.152V271.546C146.33 275.519 155.315 275.73 163.106 272.169L170.416 276.404L175.741 273.316V267.401L170.647 270.359Z" fill="#3A7063"/>
<path d="M105.538 232.899L110.863 229.811L116.528 233.09C123.297 230.122 131.038 230.142 139.742 233.15L135.881 239.407C129.684 237.476 125.092 237.375 122.094 239.115C120.599 239.98 119.928 240.986 120.078 242.133C120.228 243.28 121.071 244.286 122.585 245.171C124.129 246.066 125.754 246.499 127.448 246.468C129.153 246.438 132.051 245.945 136.162 244.98C140.654 243.923 144.385 243.219 147.373 242.857C150.351 242.505 153.429 242.616 156.588 243.209C159.747 243.803 162.725 244.899 165.522 246.519C169.804 249.003 172.271 251.709 172.923 254.646C173.574 257.584 172.06 260.41 168.39 263.116L175.74 267.371L170.416 270.459L163.106 266.225C155.314 269.775 146.33 269.574 136.152 265.601L141.908 259.404C148.024 262.06 153.219 262.151 157.51 259.666C159.516 258.509 160.418 257.322 160.218 256.105C160.017 254.888 159.105 253.822 157.48 252.876C155.806 251.9 154.061 251.438 152.246 251.488C150.431 251.538 147.242 252.112 142.66 253.228C138.559 254.244 135.119 254.898 132.322 255.19C129.524 255.481 126.586 255.331 123.497 254.727C120.409 254.123 117.491 253.027 114.753 251.448C111.164 249.365 108.837 246.961 107.794 244.235C106.752 241.509 107.885 238.813 111.184 236.168L105.538 232.899Z" fill="#DEF9F2"/>
<path d="M167.891 350.202L159.197 369.344L172.193 374.806C185.84 380.43 183.975 387.229 182.1 388.004L172.032 386.374L150.393 381.747C146.302 380.872 143.685 376.838 144.557 372.734C144.608 372.523 144.658 372.302 144.718 372.091L153.993 341.652L167.891 350.202Z" fill="#3A7063"/>
<path d="M146.773 181.812C146.773 181.812 238.384 166.17 230.583 206.9C222.791 247.639 182.18 327.8 174.058 358.108L150.664 350.936C150.664 350.936 160.411 316.715 163.329 297.492C166.247 278.269 177.618 233.617 185.419 217.331C185.419 217.331 70.7455 260.022 86.3382 174.318L146.773 181.812Z" fill="#254F44"/>
<path d="M178.286 157.861C178.286 157.861 192.906 140.428 193.066 130.329L176.661 126.577C176.661 126.577 174.716 147.269 178.286 157.861Z" fill="#24284A"/>
<path d="M167.566 83.715C174.485 86.9842 189.797 122.312 194.65 133.86C194.971 134.634 195.874 135.006 196.646 134.674C197.037 134.514 197.348 134.192 197.488 133.789C201.248 123.499 214.435 98.3812 219.549 84.5298C224.873 70.105 249.35 52.3507 231.24 95.122C225.705 108.209 212.579 162.075 199.895 162.418C187.711 162.739 173.091 144.985 156.366 118.258C139.63 91.541 167.566 83.715 167.566 83.715Z" fill="#F6D1BA"/>
<path d="M169.843 76.2208C169.843 76.2208 175.207 74.0179 180.071 89.9113C184.944 105.795 193.718 130.238 193.718 130.238C193.718 130.238 179.318 140.971 178.286 158.504C178.286 158.504 157.168 130.721 152.786 119.234C148.404 107.756 146.208 72.8007 169.843 76.2208Z" fill="#D3E8FC"/>
<path d="M220.521 82.0048C222.627 75.8989 219.779 68.6765 223.61 63.9186C227.019 59.6837 227.911 61.2328 232.133 62.6913C236.354 64.16 246.422 62.6109 245.449 64.7333C244.477 66.8558 234.931 93.7337 227.46 89.9918C219.99 86.2397 220.521 82.0048 220.521 82.0048Z" fill="#F6D1BA"/>
<path d="M253.345 50.6406C254.267 51.1335 254.719 52.1998 254.438 53.2057C254.197 54.4832 237.08 79.6612 235.917 81.3712C234.764 83.0813 234.644 84.057 229.46 84.1173C224.285 84.1777 221.538 84.1173 220.084 84.1173C218.63 84.1173 218.259 82.0351 218.68 81.3712C219.121 80.7073 253.345 50.6406 253.345 50.6406Z" fill="#E5E5E5"/>
<path d="M230.71 82.6587H219.76C218.527 82.6587 218.216 81.6428 219.078 80.4055L238.211 52.8033C239.073 51.566 240.778 50.55 242.011 50.55H252.961C254.194 50.55 254.505 51.566 253.643 52.8033L234.51 80.4055C233.658 81.6528 231.943 82.6587 230.71 82.6587Z" fill="#3A7063"/>
<path d="M251.811 54.4006H237.833L226.692 70.4751L250.317 56.5533L251.811 54.4006Z" fill="#DEF9F2"/>
<path d="M226.692 70.475L220.896 78.8341H234.874L250.327 56.5532L226.692 70.475Z" fill="#DEF9F2"/>
<path d="M222.797 66.0914C223.9 63.5465 225.505 60.0761 228.272 61.7761C231.04 63.476 235.191 62.2689 235.853 62.8423C236.515 63.4056 235.522 68.576 228.934 67.379C225.445 66.7453 225.224 72.1973 222.075 72.4085C220.632 72.3985 222.797 66.0914 222.797 66.0914Z" fill="#F6D1BA"/>
<path d="M243.364 65.3872C248.117 65.4777 251.145 68.0931 246.803 69.5819C242.461 71.0706 240.646 67.4594 241.839 66.4535C242.281 66.0109 242.802 65.6487 243.364 65.3872Z" fill="#F6D1BA"/>
<path d="M240.045 73.867C244.206 76.1706 245.67 79.9025 241.137 79.1883C236.605 78.4741 236.675 74.4203 238.199 74.0984C238.791 73.9173 239.423 73.8369 240.045 73.867Z" fill="#F6D1BA"/>
<path d="M237.598 77.3978C240.686 80.0433 241.268 83.4131 237.608 82.035C233.938 80.6569 234.69 77.2771 236.024 77.267C236.545 77.2268 237.086 77.267 237.598 77.3978Z" fill="#F6D1BA"/>
<path d="M242.251 69.7428C247.645 70.8594 250.483 74.2091 245.189 74.8126C239.894 75.4161 238.661 71.2919 240.265 70.5174C240.887 70.1653 241.549 69.9037 242.251 69.7428Z" fill="#F6D1BA"/>
<path d="M310.822 304.483L324.55 320.387L334.908 310.81C345.687 300.711 351.072 305.248 350.992 307.27L345.316 315.769L332.11 333.574C329.614 336.944 324.861 337.638 321.511 335.133C321.331 335.002 321.17 334.862 321 334.721L297.275 313.577L310.822 304.483Z" fill="#3A7063"/>
<path d="M96.1049 52.432C84.8942 52.9249 90.1787 75.0047 86.278 107.747C82.3773 140.489 84.3327 185.222 84.3327 185.222C84.3327 185.222 143.294 183.754 153.041 183.995C153.041 183.995 160.882 113.944 175.151 80.4165C175.482 79.6419 175.281 78.7366 174.64 78.1934C171.631 75.6485 157.352 68.0237 142.692 59.8355C123.289 49.022 107.306 51.9492 96.1049 52.432Z" fill="#E8F3FD"/>
<path d="M98.702 141.402C98.702 141.402 109.742 103.278 130.379 124.13C130.369 124.13 114.295 141.402 98.702 141.402Z" fill="#24284A"/>
<path d="M128.664 117.039C128.664 117.039 131.101 132.681 136.706 137.328C142.311 141.975 187.144 170.563 199.077 175.693C211.019 180.824 229.289 178.872 228.316 194.755C227.344 210.639 201.032 193.045 194.695 190.36C188.357 187.674 130.619 169.095 116.972 154.921C103.325 140.748 95.5333 118.507 88.464 69.6201C88.464 69.6302 110.635 37.6121 128.664 117.039Z" fill="#F6D1BA"/>
<path d="M90.8906 53.0527C92.2744 52.2983 97.609 51.9563 99.1934 51.7853C104.347 51.222 109.652 57.0059 112.67 61.2308C117.223 67.5881 121.605 77.8484 130.379 124.13C130.379 124.13 105.36 132.439 98.702 141.402C98.702 141.402 86.1978 107.835 85.7065 82.7472C85.5561 74.7704 84.6636 66.5923 86.8897 58.8065C87.2507 57.2675 87.9526 55.819 88.9453 54.5817C89.4968 53.9581 90.1586 53.445 90.8906 53.0527Z" fill="#D3E8FC"/>
<path d="M160.433 20.1021C160.433 20.1021 164.785 12.6885 164.323 9.98261C163.862 7.26665 164.063 3.69568 159.109 1.38208C154.166 -0.931511 147.698 -0.207263 141.892 2.56905C136.086 5.34537 123.422 4.55069 124.344 19.5689C125.267 34.5872 137.139 35.7742 136.016 40.5422L145.452 32.4044L160.433 20.1021Z" fill="#3A7063"/>
<path d="M160.824 17.3961C160.824 17.3961 170.129 46.1954 152.782 44.5859C142.032 43.5901 138.142 35.4522 138.142 35.4522C138.142 35.4522 134.382 36.6392 133.92 28.9641C133.65 24.4073 139.325 21.9529 139.596 29.0949C139.596 29.0949 143.687 30.3523 144.469 24.2665C145.251 18.1807 148.43 18.4423 151.859 19.4985C155.279 20.5648 160.292 19.247 160.824 17.3961Z" fill="#F6D1BA"/>
<path d="M136.878 34.5269C136.878 34.5269 135.033 47.0303 131.273 52.6534C131.273 52.6534 125.026 52.1102 121.376 52.0599C117.696 52.0096 138.001 92.9502 144.73 82.368C151.458 71.7858 148.55 63.0444 148.55 63.0444C148.55 63.0444 145.512 59.2119 145.783 58.1557C146.043 57.0995 151.057 42.9363 151.057 42.9363C151.057 42.9363 151.197 29.1654 136.878 34.5269Z" fill="#F6D1BA"/>
<path d="M85.3856 178.875C85.3856 178.875 76.6116 227.108 97.4085 229.382C118.205 231.665 175.372 225.147 183.494 233.295C191.616 241.443 222.15 273.702 251.39 291.95C280.63 310.197 296.543 325.517 296.543 325.517L316.357 310.197C316.357 310.197 253.335 232.641 240.67 218.297C228.006 203.952 215.662 187.013 193.561 185.705C171.461 184.418 86.0273 182.456 85.3856 178.875Z" fill="#4FA18F"/>
<path d="M191.283 10.5117C182.439 10.5117 175.239 16.3762 175.239 23.5886C175.239 27.7631 177.656 31.6359 181.737 34.1003C180.584 37.1985 177.706 39.3713 172.963 40.7293C172.482 40.8701 172.181 41.3429 172.241 41.8358C172.311 42.3287 172.732 42.7009 173.234 42.7009C173.815 42.7009 187.092 42.6305 191.012 36.6654C192.898 36.7157 194.853 36.4441 196.658 35.921C197.139 35.7802 197.44 35.3074 197.37 34.8145C197.32 34.4423 197.29 34.05 197.29 33.6577C197.29 29.0305 200.99 24.856 206.505 23.2667C206.986 23.1258 207.287 22.6631 207.227 22.1702C206.344 15.5212 199.496 10.5117 191.283 10.5117Z" fill="#3A7063"/>
<path d="M229.658 50.7884C224.925 49.4304 222.037 47.2576 220.884 44.1594C224.965 41.6949 227.372 37.8222 227.372 33.6476C227.372 26.4353 220.172 20.5708 211.328 20.5708C202.484 20.5708 195.284 26.4353 195.284 33.6476C195.284 40.86 202.484 46.7245 211.328 46.7245C211.418 46.7245 211.508 46.7245 211.599 46.7245C215.519 52.6895 228.796 52.76 229.377 52.76C229.879 52.76 230.3 52.3878 230.37 51.8949C230.45 51.402 230.139 50.9292 229.658 50.7884Z" fill="#5CD3A9"/>
<path d="M211.338 35.6595C212.446 35.6595 213.344 34.7588 213.344 33.6477C213.344 32.5366 212.446 31.6359 211.338 31.6359C210.23 31.6359 209.333 32.5366 209.333 33.6477C209.333 34.7588 210.23 35.6595 211.338 35.6595Z" fill="#3A7063"/>
<path d="M204.319 35.6595C205.426 35.6595 206.324 34.7588 206.324 33.6477C206.324 32.5366 205.426 31.6359 204.319 31.6359C203.211 31.6359 202.313 32.5366 202.313 33.6477C202.313 34.7588 203.211 35.6595 204.319 35.6595Z" fill="#3A7063"/>
<path d="M218.357 35.6595C219.465 35.6595 220.363 34.7588 220.363 33.6477C220.363 32.5366 219.465 31.6359 218.357 31.6359C217.25 31.6359 216.352 32.5366 216.352 33.6477C216.352 34.7588 217.25 35.6595 218.357 35.6595Z" fill="#3A7063"/>
<path d="M194.291 21.5768V21.4259C194.291 20.1484 193.439 19.0721 192.286 18.6999V17.5431H190.28V18.6999C189.127 19.0721 188.275 20.1383 188.275 21.4259C188.275 22.5223 188.877 23.5081 189.859 23.991L191.815 24.9667C192.105 25.1176 192.286 25.4093 192.286 25.7312C192.286 26.204 191.905 26.5862 191.434 26.5862H191.143C190.671 26.5862 190.29 26.204 190.29 25.7312V25.5803H188.285V25.7312C188.285 27.0087 189.137 28.085 190.29 28.4572V29.614H192.296V28.4572C193.449 28.085 194.301 27.0188 194.301 25.7312C194.301 24.6348 193.7 23.649 192.717 23.1661L190.762 22.1904C190.471 22.0395 190.29 21.7478 190.29 21.4259C190.29 20.9531 190.671 20.5709 191.143 20.5709H191.434C191.905 20.5709 192.286 20.9531 192.286 21.4259V21.5768H194.291Z" fill="white"/>
</g>
<defs>
<clipPath id="clip0">
<rect width="351" height="388" fill="white"/>
</clipPath>
</defs>
</svg>
