<svg width="187" height="61" viewBox="0 0 187 61" fill="none" xmlns="http://www.w3.org/2000/svg">
<path d="M64.8394 41.5938C64.0746 41.5938 63.6943 41.2143 63.6943 40.451V20.2686C63.6943 19.5053 64.0746 19.1258 64.8394 19.1258H72.8216C76.0019 19.1258 78.3924 19.7723 79.993 21.061C81.5936 22.3498 82.3918 24.4561 82.3918 27.3756C82.3918 30.2952 81.5894 32.4014 79.993 33.6902C78.3924 34.9789 76.0019 35.6254 72.8216 35.6254H70.5649V40.4468C70.5649 41.2101 70.1845 41.5896 69.4198 41.5896H64.8394V41.5938ZM72.7255 29.9156C73.6992 29.9156 74.4013 29.7196 74.8234 29.3275C75.2455 28.9355 75.4586 28.2848 75.4586 27.3756C75.4586 26.4664 75.2455 25.8157 74.8234 25.4237C74.4013 25.0316 73.6992 24.8356 72.7255 24.8356H70.5649V29.9114H72.7255V29.9156Z" fill="#626262"/>
<path d="M99.752 40.5136C99.752 41.231 99.3926 41.5938 98.6696 41.5938H94.9794C94.386 41.5938 94.014 41.3186 93.8678 40.768L93.5836 39.8463C92.4803 41.1809 90.7209 41.8441 88.3053 41.8441C86.7382 41.8441 85.4552 41.4103 84.4563 40.5428C83.4575 39.6753 82.9602 38.3865 82.9602 36.6723C82.9602 35.8673 83.0647 35.1583 83.2778 34.5452C83.491 33.9321 83.8169 33.4233 84.2641 33.0229C84.7071 32.6225 85.2086 32.2888 85.7602 32.0219C86.3119 31.7591 87.0056 31.5506 87.8414 31.4046C88.6773 31.2586 89.5089 31.1544 90.3364 31.1043C91.1639 31.0501 92.1585 31.0126 93.3245 30.9917V30.5162C93.3245 29.436 92.4134 28.898 90.5913 28.898C89.3 28.898 87.8665 29.1732 86.2993 29.7238C85.6223 29.9782 85.1668 29.7571 84.9328 29.0565L84.168 26.7083C83.9548 26.0743 84.1805 25.6197 84.8366 25.3445C86.9346 24.4978 89.2122 24.0765 91.6737 24.0765C94.3233 24.0765 96.3335 24.5937 97.7 25.6322C99.0666 26.6708 99.752 28.1806 99.752 30.1701V40.5136ZM93.3287 34.1657C91.8242 34.1865 90.7627 34.3408 90.1483 34.6245C89.534 34.9081 89.2247 35.4336 89.2247 36.1968C89.2247 36.7057 89.3794 37.1019 89.6845 37.3855C89.9895 37.6691 90.42 37.8151 90.9716 37.8151C92.5388 37.8151 93.3245 37.031 93.3245 35.4669V34.1657H93.3287Z" fill="#626262"/>
<path d="M114.216 39.6878C113.857 40.8306 113.522 41.719 113.213 42.3529C112.904 42.9869 112.482 43.5583 111.943 44.0671C111.403 44.576 110.743 44.9221 109.97 45.114C109.197 45.3058 108.194 45.4018 106.965 45.4018C105.185 45.4018 103.848 45.285 102.957 45.0514C102.598 44.968 102.331 44.8471 102.163 44.6844C101.996 44.5217 101.908 44.2757 101.908 43.9378V41.3978C101.908 40.7847 102.205 40.4761 102.799 40.4761C102.949 40.4761 103.246 40.5011 103.689 40.5553C104.136 40.6095 104.537 40.6346 104.897 40.6346C106.021 40.6346 106.401 40.18 106.042 39.2707L100.571 25.7198C100.421 25.3612 100.416 25.0609 100.554 24.8148C100.692 24.5729 100.951 24.4478 101.332 24.4478H105.912C106.61 24.4478 107.057 24.7772 107.249 25.4321L108.967 31.5548L109.953 35.7756H110.079L110.777 31.5548L111.984 25.4321C112.11 24.7772 112.536 24.4478 113.255 24.4478H117.706C118.086 24.4478 118.358 24.5687 118.516 24.8148C118.675 25.0567 118.7 25.3612 118.596 25.7198L114.216 39.6878Z" fill="#626262"/>
<path d="M124.421 38.4199H133.578C134.025 38.4199 134.247 38.6117 134.247 38.9913V40.9599C134.247 41.3811 134.025 41.5938 133.578 41.5938H121.592C121.149 41.5938 120.924 41.3811 120.924 40.9599V19.9183C120.924 19.497 121.145 19.2843 121.592 19.2843H123.786C124.208 19.2843 124.421 19.497 124.421 19.9183V38.4199Z" fill="#626262"/>
<path d="M149.162 38.3865C149.521 38.1738 149.789 38.2905 149.956 38.7368L150.466 40.0381C150.57 40.3551 150.433 40.597 150.052 40.768C148.485 41.573 146.726 41.9733 144.774 41.9733C142.062 41.9733 139.935 41.2059 138.401 39.6711C136.863 38.1362 136.094 36.0258 136.094 33.3398C136.094 30.5913 136.792 28.4517 138.192 26.9293C139.592 25.407 141.498 24.6437 143.913 24.6437C146.266 24.6437 148.088 25.3569 149.384 26.7875C150.675 28.2139 151.323 30.1033 151.323 32.4514V34.0072C151.323 34.4075 151.11 34.6119 150.687 34.6119H139.37C139.496 36.0508 140.064 37.202 141.071 38.0695C142.078 38.937 143.386 39.3708 145 39.3708C146.563 39.3708 147.954 39.0455 149.162 38.3865ZM139.303 32.2638H148.272V32.1053C148.272 30.6246 147.9 29.4443 147.16 28.5684C146.421 27.6926 145.347 27.2505 143.951 27.2505C141.063 27.2505 139.517 28.923 139.303 32.2638Z" fill="#626262"/>
<path d="M167.793 40.9891C167.793 41.3895 167.58 41.5938 167.157 41.5938H165.344C164.984 41.5938 164.784 41.4145 164.738 41.0558L164.675 39.058C163.551 40.939 161.557 41.8816 158.699 41.8816C156.981 41.8816 155.636 41.4646 154.662 40.6304C153.688 39.7962 153.199 38.6451 153.199 37.1895C153.199 36.3011 153.391 35.5254 153.772 34.858C154.152 34.1907 154.658 33.661 155.28 33.2731C155.907 32.8811 156.722 32.5599 157.729 32.3055C158.736 32.0511 159.769 31.8759 160.83 31.78C161.892 31.6841 163.141 31.6257 164.583 31.6048V30.7707C164.583 29.607 164.274 28.7562 163.66 28.2181C163.045 27.6801 162.025 27.409 160.609 27.409C158.912 27.409 157.261 27.7468 155.648 28.4225C155.31 28.5476 155.067 28.4225 154.917 28.043L154.44 26.5206C154.357 26.2245 154.474 26.0035 154.791 25.8533C156.551 25.0483 158.607 24.6479 160.96 24.6479C163.313 24.6479 165.039 25.1484 166.142 26.1536C167.245 27.1588 167.797 28.6561 167.797 30.6455V40.9891H167.793ZM164.583 33.8195C163.225 33.8612 162.13 33.9238 161.294 34.0114C160.458 34.0948 159.618 34.2449 158.782 34.4535C157.947 34.662 157.336 34.9832 156.952 35.4044C156.572 35.8257 156.379 36.3553 156.379 36.9893C156.379 37.7067 156.655 38.2948 157.207 38.7494C157.759 39.204 158.544 39.4334 159.56 39.4334C161.169 39.4334 162.41 39.033 163.279 38.228C164.148 37.4231 164.583 36.4179 164.583 35.2125V33.8195Z" fill="#626262"/>
<path d="M183.786 39.0205C183.318 39.9714 182.583 40.6929 181.576 41.1767C180.568 41.6647 179.407 41.9066 178.094 41.9066C175.804 41.9066 174.024 41.1767 172.753 39.717C171.483 38.2572 170.848 36.1092 170.848 33.2773C170.848 30.4453 171.487 28.2974 172.77 26.8376C174.053 25.3778 175.829 24.6479 178.094 24.6479C179.365 24.6479 180.51 24.9023 181.53 25.4112C182.549 25.92 183.268 26.6374 183.69 27.5675V19.8557C183.69 19.4762 183.903 19.2843 184.325 19.2843H186.394C186.795 19.2843 187 19.4762 187 19.8557V40.9891C187 41.3895 186.799 41.5938 186.394 41.5938H184.422C184.02 41.5938 183.816 41.4145 183.816 41.0558L183.786 39.0205ZM182.466 28.8854C181.63 27.9011 180.435 27.409 178.888 27.409C177.342 27.409 176.18 27.8761 175.407 28.8062C174.634 29.7363 174.245 31.2294 174.245 33.2815C174.245 35.3335 174.634 36.8308 175.407 37.7734C176.18 38.716 177.342 39.1873 178.888 39.1873C180.435 39.1873 181.63 38.691 182.466 37.6941C183.301 36.7015 183.724 35.2292 183.724 33.2815C183.724 31.3337 183.301 29.8698 182.466 28.8854Z" fill="#626262"/>
<path d="M22.5841 10.7168C18.1166 5.64514 11.9607 2.08746 4.9899 0.923814C2.37793 0.490052 0 2.50037 0 5.14465V55.8614C0 58.5057 2.37793 60.516 4.9899 60.078C11.9607 58.9144 18.1166 55.3567 22.5799 50.285C23.9214 48.7627 24.0384 46.5021 22.8223 44.8797C19.8133 40.8716 18.0288 35.8958 18.0288 30.503C18.0288 25.1102 19.8133 20.1344 22.8223 16.1263C24.0426 14.4997 23.9256 12.2433 22.5841 10.7168Z" fill="#4FA18F"/>
<path d="M32.1752 11.1346C30.4534 12.3941 29.9352 14.7131 30.9257 16.6025C33.1072 20.7566 34.3442 25.4862 34.3442 30.5037C34.3442 35.5211 33.1072 40.2466 30.9257 44.4049C29.9352 46.2901 30.4534 48.6132 32.1752 49.8728C34.8165 51.8039 37.8631 53.2094 41.1688 53.9352C43.8351 54.5232 46.3593 52.4796 46.3593 49.756V11.2514C46.3593 8.52783 43.8351 6.48415 41.1688 7.07223C37.8672 7.79794 34.8165 9.2035 32.1752 11.1346Z" fill="#5CD3A9"/>
</svg>
