<svg width="187" height="60" viewBox="0 0 187 60" fill="none" xmlns="http://www.w3.org/2000/svg">
<path d="M64.8394 40.729C64.0746 40.729 63.6943 40.3495 63.6943 39.5862V19.4038C63.6943 18.6405 64.0746 18.261 64.8394 18.261H72.8216C76.0019 18.261 78.3924 18.9075 79.993 20.1962C81.5936 21.485 82.3918 23.5913 82.3918 26.5108C82.3918 29.4303 81.5894 31.5366 79.993 32.8254C78.3924 34.1141 76.0019 34.7606 72.8216 34.7606H70.5649V39.582C70.5649 40.3453 70.1845 40.7248 69.4198 40.7248H64.8394V40.729ZM72.7255 29.0508C73.6992 29.0508 74.4013 28.8548 74.8234 28.4627C75.2455 28.0707 75.4586 27.42 75.4586 26.5108C75.4586 25.6016 75.2455 24.9509 74.8234 24.5589C74.4013 24.1668 73.6992 23.9708 72.7255 23.9708H70.5649V29.0466H72.7255V29.0508Z" fill="white"/>
<path d="M99.752 39.649C99.752 40.3663 99.3926 40.7292 98.6696 40.7292H94.9794C94.386 40.7292 94.014 40.4539 93.8678 39.9034L93.5836 38.9816C92.4803 40.3163 90.7209 40.9795 88.3053 40.9795C86.7382 40.9795 85.4552 40.5457 84.4563 39.6782C83.4575 38.8106 82.9602 37.5219 82.9602 35.8077C82.9602 35.0027 83.0647 34.2937 83.2778 33.6806C83.491 33.0675 83.8169 32.5586 84.2641 32.1582C84.7071 31.7578 85.2086 31.4242 85.7602 31.1573C86.3119 30.8945 87.0056 30.686 87.8414 30.54C88.6773 30.394 89.5089 30.2897 90.3364 30.2397C91.1639 30.1855 92.1585 30.1479 93.3245 30.1271V29.6516C93.3245 28.5714 92.4134 28.0333 90.5913 28.0333C89.3 28.0333 87.8665 28.3086 86.2993 28.8592C85.6223 29.1136 85.1668 28.8925 84.9328 28.1918L84.168 25.8437C83.9548 25.2097 84.1805 24.7551 84.8366 24.4798C86.9346 23.6332 89.2122 23.2119 91.6737 23.2119C94.3233 23.2119 96.3335 23.7291 97.7 24.7676C99.0666 25.8061 99.752 27.316 99.752 29.3054V39.649ZM93.3287 33.301C91.8242 33.3219 90.7627 33.4762 90.1483 33.7598C89.534 34.0434 89.2247 34.569 89.2247 35.3322C89.2247 35.841 89.3794 36.2373 89.6845 36.5209C89.9895 36.8045 90.42 36.9505 90.9716 36.9505C92.5388 36.9505 93.3245 36.1664 93.3245 34.6023V33.301H93.3287Z" fill="white"/>
<path d="M114.216 38.8231C113.857 39.9658 113.522 40.8542 113.213 41.4882C112.904 42.1221 112.482 42.6935 111.943 43.2024C111.403 43.7112 110.743 44.0574 109.97 44.2492C109.197 44.4411 108.194 44.537 106.965 44.537C105.185 44.537 103.848 44.4202 102.957 44.1867C102.598 44.1033 102.331 43.9823 102.163 43.8197C101.996 43.657 101.908 43.4109 101.908 43.0731V40.5331C101.908 39.92 102.205 39.6113 102.799 39.6113C102.949 39.6113 103.246 39.6364 103.689 39.6906C104.136 39.7448 104.537 39.7698 104.897 39.7698C106.021 39.7698 106.401 39.3152 106.042 38.406L100.571 24.8551C100.421 24.4964 100.416 24.1961 100.554 23.95C100.692 23.7081 100.951 23.583 101.332 23.583H105.912C106.61 23.583 107.057 23.9125 107.249 24.5673L108.967 30.69L109.953 34.9109H110.079L110.777 30.69L111.984 24.5673C112.11 23.9125 112.536 23.583 113.255 23.583H117.706C118.086 23.583 118.358 23.704 118.516 23.95C118.675 24.1919 118.7 24.4964 118.596 24.8551L114.216 38.8231Z" fill="white"/>
<path d="M124.421 37.5552H133.578C134.025 37.5552 134.247 37.7471 134.247 38.1266V40.0952C134.247 40.5165 134.025 40.7292 133.578 40.7292H121.592C121.149 40.7292 120.924 40.5165 120.924 40.0952V19.0536C120.924 18.6324 121.145 18.4197 121.592 18.4197H123.786C124.208 18.4197 124.421 18.6324 124.421 19.0536V37.5552Z" fill="white"/>
<path d="M149.162 37.5218C149.521 37.3091 149.789 37.4259 149.956 37.8721L150.466 39.1734C150.57 39.4904 150.433 39.7323 150.052 39.9033C148.485 40.7083 146.726 41.1087 144.774 41.1087C142.062 41.1087 139.935 40.3412 138.401 38.8064C136.863 37.2715 136.094 35.1611 136.094 32.4751C136.094 29.7266 136.792 27.587 138.192 26.0646C139.592 24.5423 141.498 23.7791 143.913 23.7791C146.266 23.7791 148.088 24.4923 149.384 25.9228C150.675 27.3492 151.323 29.2386 151.323 31.5868V33.1425C151.323 33.5429 151.11 33.7472 150.687 33.7472H139.37C139.496 35.1862 140.064 36.3373 141.071 37.2048C142.078 38.0723 143.386 38.5061 145 38.5061C146.563 38.5061 147.954 38.1808 149.162 37.5218ZM139.303 31.3991H148.272V31.2406C148.272 29.76 147.9 28.5796 147.16 27.7038C146.421 26.8279 145.347 26.3858 143.951 26.3858C141.063 26.3858 139.517 28.0583 139.303 31.3991Z" fill="white"/>
<path d="M167.793 40.1243C167.793 40.5247 167.58 40.7291 167.157 40.7291H165.344C164.984 40.7291 164.784 40.5498 164.738 40.1911L164.675 38.1933C163.551 40.0743 161.557 41.0169 158.699 41.0169C156.981 41.0169 155.636 40.5998 154.662 39.7656C153.688 38.9315 153.199 37.7804 153.199 36.3248C153.199 35.4364 153.391 34.6606 153.772 33.9933C154.152 33.326 154.658 32.7963 155.28 32.4084C155.907 32.0163 156.722 31.6952 157.729 31.4408C158.736 31.1863 159.769 31.0112 160.83 30.9152C161.892 30.8193 163.141 30.7609 164.583 30.7401V29.9059C164.583 28.7423 164.274 27.8914 163.66 27.3534C163.045 26.8154 162.025 26.5443 160.609 26.5443C158.912 26.5443 157.261 26.8821 155.648 27.5578C155.31 27.6829 155.067 27.5578 154.917 27.1782L154.44 25.6559C154.357 25.3598 154.474 25.1387 154.791 24.9886C156.551 24.1836 158.607 23.7832 160.96 23.7832C163.313 23.7832 165.039 24.2837 166.142 25.2889C167.245 26.294 167.797 27.7913 167.797 29.7808V40.1243H167.793ZM164.583 32.9548C163.225 32.9965 162.13 33.059 161.294 33.1466C160.458 33.23 159.618 33.3802 158.782 33.5887C157.947 33.7973 157.336 34.1184 156.952 34.5397C156.572 34.9609 156.379 35.4906 156.379 36.1246C156.379 36.8419 156.655 37.43 157.207 37.8846C157.759 38.3392 158.544 38.5686 159.56 38.5686C161.169 38.5686 162.41 38.1682 163.279 37.3633C164.148 36.5583 164.583 35.5532 164.583 34.3478V32.9548Z" fill="white"/>
<path d="M183.786 38.1558C183.318 39.1068 182.583 39.8283 181.576 40.3121C180.568 40.8001 179.407 41.042 178.094 41.042C175.804 41.042 174.024 40.3121 172.753 38.8523C171.483 37.3926 170.848 35.2446 170.848 32.4127C170.848 29.5807 171.487 27.4327 172.77 25.973C174.053 24.5132 175.829 23.7833 178.094 23.7833C179.365 23.7833 180.51 24.0377 181.53 24.5466C182.549 25.0554 183.268 25.7728 183.69 26.7029V18.9911C183.69 18.6115 183.903 18.4197 184.325 18.4197H186.394C186.795 18.4197 187 18.6115 187 18.9911V40.1244C187 40.5248 186.799 40.7292 186.394 40.7292H184.422C184.02 40.7292 183.816 40.5499 183.816 40.1912L183.786 38.1558ZM182.466 28.0208C181.63 27.0365 180.435 26.5444 178.888 26.5444C177.342 26.5444 176.18 27.0115 175.407 27.9416C174.634 28.8717 174.245 30.3648 174.245 32.4168C174.245 34.4689 174.634 35.9662 175.407 36.9088C176.18 37.8514 177.342 38.3227 178.888 38.3227C180.435 38.3227 181.63 37.8263 182.466 36.8295C183.301 35.8369 183.724 34.3646 183.724 32.4168C183.724 30.4691 183.301 29.0051 182.466 28.0208Z" fill="white"/>
<path d="M22.5841 9.85207C18.1166 4.7804 11.9607 1.22272 4.9899 0.0590678C2.37793 -0.374694 0 1.63562 0 4.2799V54.9966C0 57.6409 2.37793 59.6512 4.9899 59.2133C11.9607 58.0497 18.1166 54.492 22.5799 49.4203C23.9214 47.898 24.0384 45.6374 22.8223 44.015C19.8133 40.0068 18.0288 35.0311 18.0288 29.6383C18.0288 24.2454 19.8133 19.2697 22.8223 15.2616C24.0426 13.635 23.9256 11.3786 22.5841 9.85207Z" fill="white"/>
<path d="M32.1752 10.2698C30.4534 11.5293 29.9352 13.8483 30.9257 15.7377C33.1072 19.8918 34.3442 24.6214 34.3442 29.6389C34.3442 34.6563 33.1072 39.3818 30.9257 43.5401C29.9352 45.4253 30.4534 47.7484 32.1752 49.008C34.8165 50.9391 37.8631 52.3446 41.1688 53.0704C43.8351 53.6584 46.3593 51.6147 46.3593 48.8912V10.3865C46.3593 7.66302 43.8351 5.61934 41.1688 6.20742C37.8672 6.93314 34.8165 8.33869 32.1752 10.2698Z" fill="white"/>
</svg>
