<svg width="102" height="110" viewBox="0 0 102 110" fill="none" xmlns="http://www.w3.org/2000/svg">
<path d="M66.6923 9.82143V100.198C66.6923 100.198 66.6923 100.198 66.6923 100.218C66.6923 101.416 66.4765 102.575 66.0646 103.616C64.6719 107.348 61.0823 110 56.8846 110H9.80769C4.39385 110 0 105.6 0 100.179V9.82143C0 4.4 4.39385 0 9.80769 0H56.8846C62.2985 0 66.6923 4.4 66.6923 9.82143Z" fill="#5CD3A9"/>
<path d="M66.0646 103.616C64.6719 107.348 61.0823 110 56.8846 110H9.80769C4.39385 110 0 105.6 0 100.179V48.7143C10.3962 74.8589 29.835 99.2947 66.0646 103.616Z" fill="#4FA18F"/>
<path d="M66.6923 94.2857V100.198C66.6923 100.198 66.6923 100.198 66.6923 100.218C66.6923 101.416 66.4765 102.575 66.0646 103.616C64.6719 107.348 61.0823 110 56.8846 110H9.80769C4.39385 110 0 105.6 0 100.179V94.2857H66.6923Z" fill="#3A7063"/>
<path d="M66.0646 103.616C64.6719 107.348 61.0823 110 56.8846 110H9.80769C4.39385 110 0 105.6 0 100.179V94.2857H36.8965C45.1546 98.9803 54.8054 102.28 66.0646 103.616Z" fill="#4FA18F"/>
<path d="M66.6923 9.82143V15.7143H0V9.82143C0 4.4 4.39385 0 9.80769 0H56.8846C62.2985 0 66.6923 4.4 66.6923 9.82143Z" fill="#3A7063"/>
<path d="M33.3462 104.107C34.4295 104.107 35.3077 103.228 35.3077 102.143C35.3077 101.058 34.4295 100.179 33.3462 100.179C32.2628 100.179 31.3846 101.058 31.3846 102.143C31.3846 103.228 32.2628 104.107 33.3462 104.107Z" fill="#1E44BC"/>
<path d="M52.9615 9.82142C54.0449 9.82142 54.9231 8.94198 54.9231 7.85714C54.9231 6.77229 54.0449 5.89285 52.9615 5.89285C51.8782 5.89285 51 6.77229 51 7.85714C51 8.94198 51.8782 9.82142 52.9615 9.82142Z" fill="#4FA18F"/>
<path d="M102 27.5V82.5C102 83.5803 101.117 84.4643 100.038 84.4643H35.3077C34.2289 84.4643 33.3462 83.5803 33.3462 82.5V27.5C33.3462 26.4196 34.2289 25.5357 35.3077 25.5357H100.038C101.117 25.5357 102 26.4196 102 27.5Z" fill="#E5E5E5"/>
<path d="M82.3846 68.75C82.3846 67.6107 82.8554 66.5696 83.6792 65.8429C84.0912 65.4696 84.3462 64.9393 84.3462 64.3893C84.3462 63.8196 84.1108 63.2893 83.6988 62.9161C82.2669 61.6196 80.4035 60.8929 78.4615 60.8929C74.1265 60.8929 70.6154 64.4089 70.6154 68.75C70.6154 73.0911 74.1265 76.6071 78.4615 76.6071C80.4035 76.6071 82.2669 75.8804 83.6988 74.5839C84.1108 74.2107 84.3462 73.6607 84.3462 73.1107C84.3462 72.5411 84.0912 72.0107 83.6792 71.6571C82.8554 70.9304 82.3846 69.8893 82.3846 68.75Z" fill="#3A7063"/>
<path d="M86.3077 76.6071C90.641 76.6071 94.1539 73.0894 94.1539 68.75C94.1539 64.4106 90.641 60.8929 86.3077 60.8929C81.9744 60.8929 78.4615 64.4106 78.4615 68.75C78.4615 73.0894 81.9744 76.6071 86.3077 76.6071Z" fill="#5CD3A9"/>
<path d="M37.2692 25.5357H33.3462V84.4643H37.2692V25.5357Z" fill="#C1CCE5"/>
<path d="M102 35.3571H33.3462V49.1071H102V35.3571Z" fill="#5CD3A9"/>
<path d="M37.2692 35.3571H33.3462V49.1071H37.2692V35.3571Z" fill="#4FA18F"/>
<path d="M85.2877 84.4643H35.3077C34.2289 84.4643 33.3462 83.5804 33.3462 82.5V36.0446C41.0746 54.1161 56.1785 75.7625 85.2877 84.4643Z" fill="#CCCCCC"/>
<path d="M37.2692 44.1964V84.4643H35.3077C34.2289 84.4643 33.3462 83.5804 33.3462 82.5V36.0446C34.4839 38.6964 35.7785 41.4464 37.2692 44.1964Z" fill="#CCCCCC"/>
<path d="M40.0742 49.1072H33.3462V36.0446C35.1508 40.2679 37.3673 44.6875 40.0742 49.1072Z" fill="#4FA18F"/>
<path d="M37.2692 44.1964V49.1072H33.3462V36.0446C34.4839 38.6964 35.7785 41.4464 37.2692 44.1964Z" fill="#2357B5"/>
<path d="M33.3462 88.3929C32.2673 88.3929 31.3846 87.5089 31.3846 86.4286V23.5714C31.3846 22.4911 32.2673 21.6071 33.3462 21.6071C34.425 21.6071 35.3077 22.4911 35.3077 23.5714V86.4286C35.3077 87.5089 34.425 88.3929 33.3462 88.3929Z" fill="#3A7063"/>
</svg>
