<svg width="671" height="358" viewBox="0 0 671 358" fill="none" xmlns="http://www.w3.org/2000/svg">
<g clip-path="url(#clip0)">
<path d="M340.303 211.685C235.707 214.856 143.841 226.916 83.4227 240.206C22.4873 253.733 -7.02188 268.511 1.42162 282.383C9.92975 296.384 54.0212 307.97 113.212 318.649C172.833 329.112 247.533 338.67 327.207 343.351C482.421 353.728 628.567 332.262 665.314 287.41C702.383 242.816 554.083 203.853 340.303 211.685Z" fill="#DEF9F2"/>
<path d="M152.694 270.539C145.457 270.539 139.555 264.649 139.555 257.379V13.1602C139.555 5.91129 145.457 0 152.694 0H508.98C516.238 0 522.119 5.91129 522.119 13.1602V257.379C522.119 264.627 516.217 270.539 508.98 270.539H152.694Z" fill="#C7CED0"/>
<path d="M520.891 257.379C520.891 263.959 515.571 269.309 508.979 269.309H152.694C146.103 269.309 140.782 263.98 140.782 257.379V13.1602C140.782 6.5801 146.103 1.22974 152.694 1.22974H508.979C515.571 1.22974 520.891 6.5801 520.891 13.1602V257.379Z" fill="#3A7063"/>
<path d="M502.259 18.3596H159.436V237.53H502.259V18.3596Z" fill="#DEF9F2"/>
<path d="M586.199 255.804H75.4961V270.776H586.199V255.804Z" fill="#E5E5E5"/>
<path d="M76.25 270.755C82.2811 277.14 93.3955 279.665 101.064 279.665H560.653C568.321 279.665 579.414 277.14 585.445 270.755H76.25Z" fill="#CCCCCC"/>
<path d="M296.147 255.804V257.4C296.147 260.356 298.538 262.751 301.489 262.751H360.206C363.157 262.751 365.548 260.356 365.548 257.4V255.804H296.147Z" fill="#CCCCCC"/>
<path d="M417.716 87.2024L391.244 50.6991C399.3 44.8525 407.765 42.091 417.716 42.091V87.2024Z" fill="#CCCCCC"/>
<path d="M417.716 87.2024L410.328 42.6304C412.719 42.2636 415.153 42.091 417.716 42.091V87.2024Z" fill="#254F44"/>
<path d="M417.716 87.2024V42.091C442.595 42.091 462.777 62.2843 462.777 87.2024C462.777 112.142 442.595 132.335 417.716 132.335C392.838 132.335 372.656 112.12 372.656 87.2024C372.656 72.2515 379.161 59.4797 391.244 50.6991L417.716 87.2024Z" fill="#5CD3A9"/>
<path d="M417.695 87.2024L460.559 101.161C468.248 77.4509 455.303 51.9935 431.631 44.2916C426.892 42.7598 422.692 42.091 417.695 42.091V87.2024Z" fill="#3A7063"/>
<path d="M329.232 194.598H289.621V196.626H329.232V194.598Z" fill="#5CD3A9"/>
<path d="M329.232 200.574H289.621V202.602H329.232V200.574Z" fill="#5CD3A9"/>
<path d="M318.031 206.55H289.621V208.578H318.031V206.55Z" fill="#5CD3A9"/>
<path d="M287.294 193.67H282.663V197.532H287.294V193.67Z" fill="#3A7063"/>
<path d="M382.047 194.598H342.436V196.626H382.047V194.598Z" fill="#5CD3A9"/>
<path d="M382.047 200.574H342.436V202.602H382.047V200.574Z" fill="#5CD3A9"/>
<path d="M370.846 206.55H342.436V208.578H370.846V206.55Z" fill="#5CD3A9"/>
<path d="M340.109 193.67H335.478V197.532H340.109V193.67Z" fill="#254F44"/>
<path d="M434.84 194.598H395.229V196.626H434.84V194.598Z" fill="#5CD3A9"/>
<path d="M434.84 200.574H395.229V202.602H434.84V200.574Z" fill="#5CD3A9"/>
<path d="M423.64 206.55H395.229V208.578H423.64V206.55Z" fill="#5CD3A9"/>
<path d="M392.924 193.67H388.293V197.532H392.924V193.67Z" fill="#CCCCCC"/>
<path d="M469.476 185.882H251.108V186.421H469.476V185.882Z" fill="#5CD3A9"/>
<path d="M469.476 154.104H251.108V154.643H469.476V154.104Z" fill="#5CD3A9"/>
<path d="M469.476 122.325H251.108V122.864H469.476V122.325Z" fill="#5CD3A9"/>
<path d="M469.433 131.645L442.595 117.104L414.464 128.215L387.389 109.165L366.366 127.309L342.479 128.84L326.798 104.181L308.554 95.7457L289.578 111.84L271.14 111.106L251.56 128.538L250.096 126.877L270.343 108.841L288.824 109.575L308.188 93.1568L328.327 102.455L343.642 126.553L365.483 125.151L387.26 106.339L414.766 125.712L442.724 114.666L470.488 129.682L469.433 131.645Z" fill="#CCCCCC"/>
<path d="M245.163 185.062H234.889V187.263H245.163V185.062Z" fill="#5CD3A9"/>
<path d="M245.163 153.262H234.889V155.484H245.163V153.262Z" fill="#5CD3A9"/>
<path d="M245.163 121.484H234.889V123.706H245.163V121.484Z" fill="#5CD3A9"/>
<path d="M391.912 173.93L369.231 171.622L347.304 163.553L323.416 164.308L309.308 149.443L284.688 145.927L273.703 170.111L250.979 173.153L250.677 170.953L272.195 168.083L283.353 143.489L310.385 147.351L324.321 162.064L347.67 161.331L369.877 169.486L391.589 171.665L405.827 165.948L421.981 144.374L437.167 163.402L445.072 161.439L467.731 140.188L469.239 141.828L446.149 163.445L436.348 165.905L422.024 147.998L407.205 167.781L391.912 173.93Z" fill="#3A7063"/>
<path d="M292.184 164.632L272.777 148.926L250.505 158.289L249.643 156.239L273.121 146.38L292.098 161.719L325.096 131.58L349.371 141.461L374.357 157.879L384.459 138.635L396.069 129.897L410.522 106.295L427.969 115.119L442.315 130.199L456.832 127.438L468.377 113.695L470.079 115.119L458.017 129.466L441.539 132.594L426.483 116.78L411.341 109.208L397.577 131.559L385.967 140.275L375.197 161.094L348.338 143.403L325.57 134.169L292.184 164.632Z" fill="#254F44"/>
<path d="M276.266 147.48C276.266 149.206 274.866 150.63 273.121 150.63C271.398 150.63 269.998 149.228 269.998 147.48C269.998 145.754 271.398 144.331 273.121 144.331C274.888 144.331 276.266 145.733 276.266 147.48Z" fill="#254F44"/>
<path d="M295.092 162.819C295.092 164.545 293.692 165.969 291.969 165.969C290.224 165.969 288.824 164.567 288.824 162.819C288.824 161.094 290.224 159.67 291.969 159.67C293.692 159.67 295.092 161.072 295.092 162.819Z" fill="#254F44"/>
<path d="M328.672 133.069C328.672 134.795 327.272 136.197 325.549 136.197C323.826 136.197 322.404 134.795 322.404 133.069C322.404 131.321 323.804 129.919 325.549 129.919C327.25 129.919 328.672 131.321 328.672 133.069Z" fill="#254F44"/>
<path d="M352.279 142.108C352.279 143.834 350.879 145.258 349.135 145.258C347.411 145.258 345.99 143.856 345.99 142.108C345.99 140.361 347.39 138.958 349.135 138.958C350.879 138.98 352.279 140.382 352.279 142.108Z" fill="#254F44"/>
<path d="M377.739 159.303C377.739 161.029 376.339 162.453 374.616 162.453C372.893 162.453 371.471 161.05 371.471 159.303C371.471 157.577 372.871 156.153 374.616 156.153C376.339 156.153 377.739 157.577 377.739 159.303Z" fill="#254F44"/>
<path d="M388.057 139.541C388.057 141.267 386.656 142.691 384.912 142.691C383.189 142.691 381.767 141.289 381.767 139.541C381.767 137.815 383.189 136.391 384.912 136.391C386.656 136.391 388.057 137.794 388.057 139.541Z" fill="#254F44"/>
<path d="M400.42 130.48C400.42 132.206 399.02 133.608 397.297 133.608C395.574 133.608 394.152 132.206 394.152 130.48C394.152 128.732 395.552 127.33 397.297 127.33C399.02 127.33 400.42 128.732 400.42 130.48Z" fill="#254F44"/>
<path d="M413.689 108.129C413.689 109.877 412.288 111.279 410.544 111.279C408.821 111.279 407.421 109.877 407.421 108.129C407.421 106.403 408.821 105.001 410.544 105.001C412.31 104.979 413.689 106.382 413.689 108.129Z" fill="#254F44"/>
<path d="M431.049 115.874C431.049 117.622 429.649 119.024 427.905 119.024C426.181 119.024 424.781 117.622 424.781 115.874C424.781 114.148 426.181 112.724 427.905 112.724C429.628 112.746 431.049 114.148 431.049 115.874Z" fill="#254F44"/>
<path d="M445.05 131.408C445.05 133.134 443.65 134.557 441.905 134.557C440.182 134.557 438.761 133.155 438.761 131.408C438.761 129.682 440.161 128.258 441.905 128.258C443.65 128.258 445.05 129.66 445.05 131.408Z" fill="#254F44"/>
<path d="M459.826 127.891C459.826 129.617 458.426 131.019 456.682 131.019C454.958 131.019 453.537 129.617 453.537 127.891C453.537 126.165 454.958 124.741 456.682 124.741C458.426 124.741 459.826 126.165 459.826 127.891Z" fill="#254F44"/>
<path d="M185.369 117.535C193.748 110.481 229.59 107.698 238.615 90.46C243.634 80.8595 253.004 106.101 250.074 115.961C267.22 169.594 258.712 187.371 243.591 186.27C163.334 180.338 164.347 135.226 185.369 117.535Z" fill="#3A7063"/>
<path d="M257.182 203.638C257.182 203.638 256.385 207.197 273.552 211.577C290.719 215.935 316.997 218.092 316.997 218.092L278.312 204.306C278.334 204.306 263.299 199.733 257.182 203.638Z" fill="#D7BE95"/>
<path d="M303.169 215.913C311.268 218.243 313.573 223.313 316.437 225.492C319.302 227.671 321.973 230.519 321.952 230.476C321.133 226.484 318.548 225.643 317.558 224.133C316.567 222.644 316.761 223.292 319.69 223.896C321.348 224.241 323.416 227.973 325.032 230.174C326.453 232.072 327.53 232.525 327.53 232.525C327.53 232.525 326.26 229.009 324.278 225.859C321.865 222.083 318.548 218.567 317.708 217.92C316.179 216.755 310.816 215.007 306.809 214.403C302.308 213.756 297.332 214.252 303.169 215.913Z" fill="#D7BE95"/>
<path d="M317.234 217.984C317.234 217.984 322.985 221.35 323.847 222.493C324.429 223.27 326.647 227.52 326.647 227.52C326.647 227.52 324.429 226.484 323.459 224.845C322.49 223.184 317.234 217.984 317.234 217.984Z" fill="#D7BE95"/>
<path d="M266.767 198.395C266.767 198.395 250.806 194.835 249.191 204.457C248.265 209.916 251.323 212.785 256.17 213.777C265.173 215.633 275.512 217.229 275.512 217.229L284.15 204.047L266.767 198.395Z" fill="#D3E8FC"/>
<path d="M267.672 190.456L263.213 146.768C263.213 146.768 263.536 135.356 259.422 135.593C253.499 135.917 252.379 145.797 251.84 149.336C250.806 156.541 249.277 159.389 249.406 177.555C249.471 188.751 248.674 201.415 249.385 208.966C249.859 214.166 254.942 208.384 260.219 207.888C270.063 206.982 267.672 190.456 267.672 190.456Z" fill="#D3E8FC"/>
<path d="M363.372 312.802L377.933 344.451L398.137 344.905L408.347 342.833L386.376 337.591L374.594 308.229L363.372 312.802Z" fill="#E1D0B1"/>
<path d="M380.152 349.435L382.844 348.809L384.33 345.53L400.636 346.242L413.753 343.804C413.753 343.804 413.495 342.812 412.87 342.467C410.544 341.215 400.356 340.611 400.356 340.611C400.356 340.611 401.433 343.438 400.269 344.042C399.106 344.646 386.527 343.869 383.512 343.438C378.321 342.682 375.628 341.388 375.865 342.078C376.21 343.114 380.152 349.435 380.152 349.435Z" fill="#3A7063"/>
<path d="M282.707 248.49L330.33 247.217L365.806 324.992L380.496 319.188L345.882 225.578C345.882 225.578 343.125 219.667 328.758 219.667C314.757 219.667 258.259 218.114 251.84 219.904C236.633 224.154 285.313 235.567 282.707 248.49Z" fill="#4FA18F"/>
<path d="M271.032 112.315C267.09 120.448 257.29 123.835 249.169 119.865L248.889 111.063C240.769 107.094 237.409 97.299 241.351 89.1656L244.043 83.6426C247.985 75.5092 257.785 72.1221 265.906 76.0917L269.589 77.8823C277.709 81.852 281.091 91.6466 277.128 99.8016L271.032 112.315Z" fill="#3A7063"/>
<path d="M275.706 87.7849C275.038 89.1224 274.241 90.46 273.337 91.7545C267.241 100.47 258.022 104.872 251.323 102.693C249.04 106.878 246.305 110.308 243.677 113.091C240.704 116.241 234.415 118.075 234.415 118.075C230.128 124.159 232.562 141.677 247.834 143.468C257.031 144.546 255.136 134.859 251.926 128.797C250.419 125.971 248.976 122.692 249.299 121.095C250.462 115.508 252.508 114.752 255.782 112.854C261.318 110.438 266.358 112.962 266.358 112.962C266.853 113.199 267.392 113.199 267.866 113.027C268.641 112.207 269.309 111.257 269.826 110.179L275.728 98.0325C277.386 94.667 277.235 90.8915 275.706 87.7849Z" fill="#E1D0B1"/>
<path d="M227.738 233.086C227.738 233.086 234.738 234.532 236.655 235.265C239.24 236.236 246.822 235.006 246.822 235.006C246.822 235.006 247.791 197.532 249.622 184.458C251.453 171.363 254.834 167.825 254.813 163.747C254.77 157.21 254.231 155.678 253.09 150.609C251.927 145.539 255.308 138.786 254.145 140.08C252.314 142.173 245.379 145.388 238.917 138.225C237.818 136.974 227.738 233.086 227.738 233.086Z" fill="#3A7063"/>
<path d="M252.508 124.871C252.508 124.871 262.007 134.45 261.619 137.599C261.232 140.749 262.201 153.974 260.025 168.062C257.85 182.15 256.084 185.645 255.717 195.914C255.351 206.205 257.742 208.492 256.881 221.113C256.213 230.993 254.662 239.731 254.662 239.731C254.662 239.731 250.182 241.004 246.8 237.315C243.418 233.647 244.646 199.28 245.895 190.801C247.145 182.344 252.099 160.144 251.819 154.233C251.517 148.343 249.622 134.255 248.566 132.4C245.96 127.762 251.754 125.345 252.508 124.871Z" fill="#E8F3FD"/>
<path d="M252.53 123.964C252.53 123.964 252.013 124.784 251.367 125.237C250.117 126.1 248.588 127.783 248.588 127.783C248.588 127.783 250.483 126.855 251.216 128.517C252.099 130.523 252.659 135.097 252.659 135.097C252.659 135.097 256.17 129.293 255.33 127.438C253.801 124.094 252.53 123.964 252.53 123.964Z" fill="#D3E8FC"/>
<path d="M316.394 319.706L317.105 341.863L321.607 347.191L333.626 354.117L342.522 352.499L326.82 340.784L325.678 317.527L316.394 319.706Z" fill="#E1D0B1"/>
<path d="M317.794 346.738L321.822 349.629L323.072 348.637L336.448 355.994C336.448 355.994 343.513 359.553 345.473 357.245C346.119 356.511 345.322 354.073 343.039 352.391C341.251 351.075 340.153 350.557 340.153 350.557C340.153 350.557 339.7 352.283 335.694 352.952C334.423 353.167 326.475 347.903 323.739 346.544C318.85 344.085 316.89 340.654 316.653 340.978C315.985 341.798 317.794 346.738 317.794 346.738Z" fill="#3A7063"/>
<path d="M222.116 202.882L227.867 216.474L237.732 217.682L317.428 222.752C317.428 222.752 324.558 220.552 329.103 231.835C335.565 247.907 327.121 328.314 327.121 328.314L315.317 328.141L308.942 252.33C308.942 252.33 232.347 265.749 210.291 258.975C201.826 256.386 195.364 241.392 196.57 226.29C197.518 214.425 205.423 203.53 205.423 203.53L222.116 202.882Z" fill="#5CD3A9"/>
<path d="M232.972 231.447C232.972 231.447 236.655 197.985 238.766 182.15C240.855 166.314 240.403 139.735 240.898 135.938C241.372 132.12 243.375 126.64 243.375 126.64C243.375 126.64 239.52 117.989 234.501 118.291C230.085 118.549 220.565 125 213.802 127.74C209.127 129.66 207.146 181.201 206.737 184.027C205.229 194.145 200.253 205.773 197.044 213.777C194.481 220.142 192.499 229.677 192.499 229.677C192.499 229.677 217.98 226.635 232.972 231.447Z" fill="#E8F3FD"/>
<path d="M235.427 115.637L239.175 119.865C239.175 119.865 244.409 127.114 242.708 126.1C240.554 124.806 238.077 132.378 238.077 132.378L231.119 118.053L235.427 115.637Z" fill="#D3E8FC"/>
<path d="M204.863 196.95C204.863 196.95 199.047 201.092 221.06 203.357C243.095 205.622 275.943 203.983 275.943 203.983L225.562 194.425C225.584 194.447 211.669 191.599 204.863 196.95Z" fill="#E1D0B1"/>
<path d="M258.475 203.681C268.921 205.061 272.755 210.412 276.675 212.44C280.617 214.446 284.451 217.251 284.43 217.229C282.663 212.871 279.303 212.289 277.795 210.757C276.309 209.225 276.632 209.937 280.402 210.153C282.556 210.282 285.787 214.166 288.221 216.409C290.31 218.351 291.753 218.675 291.753 218.675C291.753 218.675 289.513 214.899 286.454 211.685C282.75 207.823 277.989 204.328 276.848 203.724C274.737 202.645 267.78 201.502 262.718 201.459C256.988 201.394 250.957 202.71 258.475 203.681Z" fill="#E1D0B1"/>
<path d="M276.223 203.832C276.223 203.832 283.956 206.723 285.227 207.866C286.11 208.664 289.642 213.087 289.642 213.087C289.642 213.087 286.734 212.246 285.205 210.541C283.697 208.88 276.223 203.832 276.223 203.832Z" fill="#E1D0B1"/>
<path d="M217.894 190.693L225.067 142.087C225.067 142.087 223.279 132.076 220.177 128.646C216.494 124.59 213.758 127.718 213.758 127.718C213.758 127.718 201.287 132.529 200.706 170.996C200.318 197.338 197.905 208.168 209.235 209.311C219.811 210.39 238.895 211.339 238.895 211.339L242.945 196.238L217.894 190.693Z" fill="#D3E8FC"/>
<path d="M347.218 216.97H277.688V218.416H347.218V216.97Z" fill="#C7CED0"/>
<path d="M308.382 216.906C308.382 218.006 309.179 218.912 310.148 218.912H345.817C346.787 218.912 348.101 218.2 349.285 215.395L366.905 183.142C366.905 181.761 365.806 180.898 364.858 181.136L328.263 182.236C327.293 182.452 326.497 183.207 325.936 184.674L308.382 216.906Z" fill="#E1EAF0"/>
<path d="M312.711 218.416H312.345H277.516C278.765 219.063 280.854 219.516 283.202 219.516H312.323H312.69H341.811C344.18 219.516 346.248 219.063 347.519 218.416H312.711Z" fill="#AFB4B7"/>
</g>
<defs>
<clipPath id="clip0">
<rect width="671" height="358" fill="white"/>
</clipPath>
</defs>
</svg>
